<?xml version="1.0" standalone="no"?>
<!DOCTYPE svg PUBLIC "-//W3C//DTD SVG 20010904//EN"
 "http://www.w3.org/TR/2001/REC-SVG-20010904/DTD/svg10.dtd">
<svg version="1.0" xmlns="http://www.w3.org/2000/svg"
 width="520.000000pt" height="520.000000pt" viewBox="0 0 520.000000 520.000000"
 preserveAspectRatio="xMidYMid meet">
<metadata>
Created by potrace 1.11, written by Peter Selinger 2001-2013
</metadata>
<g transform="translate(0.000000,520.000000) scale(0.100000,-0.100000)"
fill="#000000" stroke="none">
<path d="M4241 4323 c-9 -10 -9 -13 1 -13 8 0 9 -3 3 -8 -14 -10 -15 -42 -2
-42 7 0 7 -4 -1 -12 -9 -9 -8 -16 4 -29 13 -15 13 -18 0 -32 -8 -8 -12 -18 -8
-22 4 -5 -3 -5 -15 -2 -13 3 -23 0 -23 -5 0 -6 -5 -7 -12 -2 -16 11 -39 11
-55 1 -7 -5 -13 -4 -13 1 0 9 -50 9 -66 0 -5 -4 -16 -3 -24 2 -8 5 -22 5 -32
-1 -12 -6 -18 -6 -18 0 0 9 -38 7 -48 -3 -2 -3 -13 -1 -23 4 -11 6 -20 6 -24
1 -3 -6 -14 -8 -25 -6 -12 2 -18 0 -15 -4 3 -5 -2 -12 -11 -15 -9 -4 -13 -2
-8 5 4 7 -7 1 -25 -12 -18 -13 -29 -29 -26 -37 2 -7 1 -11 -4 -8 -5 3 -12 -2
-15 -11 -4 -9 -1 -20 6 -25 10 -6 10 -8 1 -8 -14 0 -13 -46 1 -68 4 -7 2 -12
-6 -12 -10 0 -10 -2 1 -9 7 -5 11 -13 7 -19 -3 -5 1 -15 9 -22 11 -9 12 -17 5
-30 -7 -13 -7 -21 0 -25 6 -4 8 -10 5 -15 -3 -5 -1 -11 5 -15 6 -4 8 -11 4
-16 -3 -5 -1 -15 4 -22 5 -7 8 -22 7 -34 -1 -13 2 -23 6 -23 4 0 5 -9 2 -20
-3 -11 -1 -20 4 -20 5 0 10 -17 11 -37 2 -20 8 -44 15 -52 10 -12 9 -13 -3 -6
-13 8 -13 6 -2 -8 8 -9 11 -21 7 -27 -3 -5 -1 -10 4 -10 6 0 11 -5 11 -11 0
-5 -5 -7 -11 -3 -6 3 -3 -6 7 -22 12 -17 14 -25 6 -20 -11 7 -12 4 -5 -10 8
-17 9 -33 4 -75 0 -5 -7 -7 -13 -3 -10 6 -10 4 0 -8 11 -14 10 -17 -8 -23 -11
-4 -17 -11 -14 -17 5 -7 1 -9 -9 -5 -10 3 -17 2 -17 -4 0 -6 -5 -7 -10 -4 -6
3 -13 -1 -16 -10 -6 -13 -8 -14 -15 -3 -6 9 -9 10 -9 1 0 -7 -7 -10 -15 -7 -8
4 -23 0 -32 -7 -14 -12 -16 -12 -8 1 8 13 7 13 -8 1 -9 -7 -17 -9 -17 -5 0 5
-18 9 -40 9 -22 0 -40 -4 -40 -9 0 -4 -6 -3 -14 3 -10 8 -16 9 -21 1 -4 -6
-12 -7 -23 -1 -21 11 -33 11 -54 0 -12 -7 -18 -6 -18 1 0 8 -6 8 -20 0 -15 -8
-20 -8 -20 1 0 8 -4 9 -13 0 -8 -6 -17 -8 -20 -4 -10 9 -67 11 -61 1 3 -4 0
-8 -5 -8 -6 0 -11 4 -11 8 0 10 -65 6 -82 -4 -6 -4 -8 -3 -5 3 6 9 -54 8 -80
-1 -7 -3 -13 -1 -13 4 0 9 -32 6 -50 -5 -6 -3 -10 -1 -10 5 0 8 -6 8 -20 0
-15 -8 -20 -8 -20 1 0 8 -4 8 -15 -1 -11 -9 -15 -9 -15 -1 0 7 -4 10 -8 7 -18
-11 -62 -14 -62 -5 0 6 -5 7 -12 3 -18 -12 -62 -11 -70 0 -6 8 -10 8 -15 1
-10 -13 -63 -15 -63 -3 0 5 -6 6 -12 2 -18 -11 -48 -12 -54 -2 -3 4 -11 5 -17
1 -17 -10 -47 -11 -47 -1 0 5 -6 6 -12 1 -19 -12 -112 -11 -120 1 -5 7 -8 7
-8 -2 0 -10 -5 -10 -21 -1 -12 6 -19 7 -16 2 3 -5 -12 -9 -34 -9 -21 0 -39 4
-39 10 0 7 -3 8 -8 1 -11 -15 -114 -16 -105 -2 4 7 -1 5 -12 -3 -21 -17 -24
-17 -36 2 -5 7 -9 8 -9 2 0 -12 -69 -13 -89 0 -10 6 -12 5 -7 -2 8 -14 -71
-12 -93 2 -9 6 -12 5 -8 -1 8 -13 -212 -12 -232 1 -9 6 -12 5 -8 -1 4 -6 -50
-9 -143 -9 -104 0 -147 3 -143 10 4 6 1 6 -8 -1 -8 -7 -43 -11 -87 -9 -44 1
-72 -2 -72 -9 0 -5 -7 -1 -15 9 -8 11 -15 15 -15 9 0 -6 -47 -10 -135 -10 -88
1 -135 4 -135 11 0 6 -5 4 -10 -4 -7 -11 -10 -11 -10 -2 0 7 -8 12 -18 10 -9
-2 -16 2 -15 8 1 7 -6 10 -16 7 -22 -6 -54 24 -44 40 4 7 -1 6 -10 -2 -15 -12
-17 -11 -17 7 0 11 -6 23 -12 25 -10 4 -10 6 0 6 11 1 10 4 -1 15 -9 10 -14
33 -13 65 1 30 -2 51 -8 51 -7 0 -8 3 -1 8 10 7 12 43 16 326 1 109 -2 150
-11 156 -9 5 -9 9 -1 11 9 3 9 12 0 37 -6 18 -14 31 -16 28 -3 -3 -16 6 -30
20 -26 26 -38 31 -27 12 4 -7 -3 -3 -15 10 -24 24 -37 29 -25 10 5 -9 2 -9 -9
1 -9 7 -17 10 -17 5 0 -5 -5 -2 -10 6 -6 9 -10 11 -10 3 0 -7 -7 -10 -16 -6
-26 10 -88 10 -101 0 -9 -6 -13 -6 -13 1 0 12 -38 10 -58 -2 -7 -4 -12 -2 -12
4 0 7 -6 8 -19 0 -14 -7 -22 -7 -27 1 -4 8 -9 7 -15 -2 -5 -8 -9 -9 -9 -3 0 6
-21 9 -50 8 -28 -1 -53 2 -56 7 -2 4 -11 6 -20 2 -9 -3 -14 0 -12 8 2 8 -2 13
-9 12 -9 -2 -10 4 -3 23 7 18 7 23 -1 18 -8 -4 -9 1 -5 17 3 13 3 18 0 11 -3
-6 -10 -10 -14 -7 -5 3 -12 0 -16 -6 -4 -8 -3 -9 5 -5 9 6 10 0 5 -21 -4 -15
-8 -30 -10 -32 -2 -2 2 -11 9 -19 10 -13 9 -14 -1 -8 -9 6 -11 1 -8 -18 3 -14
2 -26 -2 -26 -4 0 -7 -29 -7 -65 0 -36 -2 -65 -5 -65 -5 0 -10 -69 -9 -120 1
-34 1 -34 -7 -125 -3 -44 -6 -89 -6 -100 1 -10 -4 -26 -11 -34 -9 -12 -9 -13
1 -7 6 4 12 3 12 -3 0 -5 -5 -13 -10 -16 -8 -5 -8 -11 -1 -19 6 -7 8 -16 4
-20 -12 -12 -12 -86 1 -86 7 0 6 -3 -2 -9 -8 -5 -14 -38 -16 -95 -2 -48 -7
-90 -10 -93 -3 -4 0 -13 7 -21 10 -13 9 -14 -3 -7 -13 8 -13 7 -1 -8 9 -11 10
-17 2 -17 -7 0 -10 -15 -8 -40 2 -22 1 -40 -2 -40 -3 0 -6 -30 -5 -68 1 -37
-3 -72 -8 -79 -5 -6 -5 -14 0 -17 9 -5 10 -35 1 -51 -6 -10 -9 -47 -13 -135
-1 -25 -5 -51 -10 -58 -4 -7 -2 -12 6 -12 8 0 9 -3 3 -8 -5 -4 -10 -27 -10
-52 0 -25 -3 -57 -7 -72 -4 -19 -3 -28 5 -28 8 0 8 -3 2 -8 -5 -4 -10 -20 -9
-37 0 -16 -4 -38 -8 -47 -6 -12 -5 -18 2 -18 7 0 8 -7 2 -17 -4 -10 -8 -44 -7
-75 0 -32 -2 -58 -5 -58 -3 0 -5 -28 -4 -62 1 -35 -3 -69 -8 -75 -7 -9 -7 -13
1 -13 7 0 9 -5 4 -12 -6 -12 -11 -64 -16 -183 0 -22 -6 -43 -12 -47 -7 -5 -6
-8 2 -8 12 0 12 -17 0 -37 -5 -8 -3 -13 3 -13 8 0 8 -6 0 -20 -8 -15 -8 -20 2
-20 9 0 9 -3 -2 -10 -8 -5 -11 -12 -8 -16 4 -4 3 -15 -2 -25 -6 -11 -6 -20 -1
-24 5 -3 6 -17 2 -33 -4 -15 -6 -40 -4 -55 3 -20 0 -27 -8 -22 -8 5 -8 2 -1
-12 7 -12 7 -25 1 -36 -7 -12 -6 -17 3 -17 10 0 10 -2 -1 -9 -9 -6 -10 -10 -2
-16 8 -4 9 -11 3 -18 -9 -11 -10 -34 -13 -177 -1 -30 -6 -63 -11 -74 -7 -14
-7 -16 2 -11 9 6 9 3 2 -12 -6 -11 -7 -25 -2 -33 5 -8 6 -18 4 -22 -8 -13 -14
-49 -16 -105 -2 -29 -7 -53 -13 -53 -7 0 -7 -3 0 -8 6 -4 11 -23 13 -42 1 -19
3 -45 4 -57 1 -13 6 -23 11 -23 4 0 5 -4 2 -10 -3 -5 -1 -10 5 -10 6 0 8 -4 5
-10 -3 -6 4 -10 17 -10 18 0 20 -2 8 -10 -11 -7 -7 -10 18 -10 17 0 33 1 35 2
1 1 12 -4 23 -10 12 -6 25 -8 29 -4 3 4 48 7 99 8 51 0 98 4 104 8 7 4 12 3
12 -3 0 -6 9 -8 23 -3 12 4 41 7 65 6 23 0 45 3 49 9 3 5 9 4 13 -4 6 -9 13
-10 22 -3 7 6 23 9 36 8 12 0 22 3 22 8 0 5 4 6 10 3 5 -3 10 -1 10 6 0 9 3 9
14 0 10 -8 16 -9 21 -1 3 6 11 8 16 5 5 -3 6 0 3 8 -3 8 0 18 7 23 7 4 10 3 6
-3 -3 -5 0 -10 8 -10 7 0 12 8 10 17 -2 11 3 17 13 16 9 0 17 6 17 14 0 8 5
15 12 15 6 0 15 4 20 9 5 5 3 6 -4 2 -18 -10 -16 2 2 21 8 8 13 19 10 24 -4 5
-2 9 4 9 5 0 8 8 6 18 -1 9 2 23 8 29 5 7 6 13 1 13 -5 0 -9 11 -9 24 0 13 3
22 7 20 4 -3 6 5 5 16 -1 11 -5 20 -10 20 -5 0 -4 7 3 15 9 11 10 18 1 28 -6
8 -8 17 -4 20 10 11 9 161 -2 176 -7 11 -7 13 3 7 9 -6 12 6 11 51 -1 32 0 63
1 68 6 28 4 51 -5 57 -7 5 -7 8 0 8 9 0 10 17 5 120 -1 14 1 48 3 77 3 36 1
50 -7 46 -6 -4 -6 0 1 9 7 8 10 18 6 21 -3 4 -1 7 7 7 10 0 10 3 0 15 -10 12
-9 16 4 21 9 3 14 10 11 15 -8 12 17 49 33 49 7 0 10 5 7 10 -3 6 1 10 10 10
9 0 14 4 10 9 -7 12 31 25 45 16 6 -3 13 1 16 9 3 9 10 13 15 10 5 -3 9 -1 9
3 0 5 36 8 80 8 44 0 80 3 80 7 0 4 11 3 25 -2 14 -5 27 -5 30 -1 6 10 31 9
41 -2 4 -4 12 -3 18 2 17 14 28 14 37 -1 5 -7 9 -8 9 -2 0 6 18 10 43 9 23 -1
45 3 49 9 5 6 8 7 8 1 0 -11 180 -12 199 -1 6 4 11 2 11 -5 0 -9 3 -9 14 0 9
8 16 8 20 2 4 -6 13 -8 20 -5 8 3 76 6 153 8 76 1 144 5 151 10 6 4 12 3 12
-3 0 -8 20 -8 40 -1 3 1 10 1 15 0 32 -7 56 -6 61 2 3 4 10 5 16 2 18 -11 68
-10 68 1 0 6 4 5 8 -2 5 -8 13 -9 22 -3 8 5 21 5 31 -1 12 -6 20 -5 24 1 4 6
12 7 18 3 18 -11 47 -11 47 0 0 5 6 4 13 -2 8 -6 17 -8 21 -4 11 11 36 12 36
2 0 -6 7 -6 18 0 13 7 23 6 30 -1 8 -8 12 -8 12 -2 0 6 7 11 15 11 8 0 15 -4
15 -9 0 -5 5 -6 12 -2 19 12 68 13 61 1 -4 -6 -1 -7 8 -1 22 13 100 14 92 0
-5 -8 -3 -8 8 0 21 16 72 17 64 1 -4 -6 1 -3 9 7 9 11 16 16 16 10 0 -12 203
-12 212 1 5 7 8 7 8 0 0 -6 32 -10 75 -10 41 0 75 2 75 5 0 3 39 5 86 4 47 0
88 4 91 8 2 5 11 4 19 -3 11 -9 17 -9 29 1 8 7 15 8 15 2 0 -11 50 -9 68 2 7
4 12 3 12 -1 0 -5 9 -9 20 -10 13 -1 18 2 14 9 -5 7 -2 8 5 3 16 -9 133 -11
148 -2 6 4 13 3 15 -2 2 -5 24 -6 51 -1 26 4 47 3 47 -2 0 -5 8 -4 18 1 13 7
22 7 29 0 7 -7 13 -7 17 -1 4 7 17 7 36 2 17 -5 28 -5 25 0 -3 5 4 8 15 7 11
-1 20 -5 20 -9 0 -5 9 -4 20 2 11 6 20 7 20 2 0 -5 14 -9 31 -9 17 0 35 -6 40
-14 6 -10 9 -11 9 -1 0 8 8 5 22 -8 12 -11 28 -18 35 -16 7 3 15 0 19 -6 5 -7
2 -8 -7 -3 -8 5 2 -7 21 -26 33 -33 42 -49 43 -76 0 -7 5 -13 10 -13 6 0 7 -3
4 -7 -4 -3 -1 -13 6 -21 10 -13 9 -14 -3 -7 -13 8 -13 7 -1 -8 7 -9 10 -17 5
-17 -4 0 -3 -5 3 -11 6 -6 9 -18 6 -25 -3 -8 0 -14 7 -14 10 0 10 -3 0 -15 -7
-8 -8 -15 -3 -15 8 0 12 -15 15 -57 1 -7 6 -13 12 -13 6 0 4 -5 -4 -10 -11 -7
-12 -10 -2 -10 8 0 12 -6 9 -12 -2 -7 3 -22 12 -32 9 -11 11 -16 4 -13 -8 5
-11 0 -10 -13 1 -11 5 -20 10 -20 5 0 7 -14 5 -30 -3 -17 0 -34 5 -37 6 -4 7
-1 2 7 -5 8 -4 11 2 7 5 -3 9 -16 8 -29 -1 -13 2 -29 8 -35 6 -9 5 -13 -4 -13
-12 0 -12 -2 -1 -9 8 -4 13 -11 13 -15 -1 -3 -1 -7 0 -8 2 -10 12 -76 12 -90
1 -10 6 -18 11 -18 5 0 6 -3 3 -7 -4 -3 -1 -13 6 -21 10 -13 9 -14 -3 -7 -13
8 -13 6 -2 -8 8 -9 11 -21 8 -26 -4 -5 -2 -13 4 -16 8 -5 7 -12 -2 -23 -10
-12 -10 -14 0 -8 8 5 12 -1 12 -18 0 -14 4 -26 8 -26 4 0 9 -9 10 -20 1 -11 3
-29 4 -40 1 -10 4 -17 6 -15 9 9 34 -26 28 -40 -3 -9 0 -12 9 -9 7 3 19 -4 25
-16 6 -11 15 -18 21 -15 5 4 9 1 9 -4 0 -6 7 -11 16 -11 8 0 13 -4 10 -8 -3
-5 1 -9 9 -10 8 -1 22 -3 30 -4 8 -1 15 -4 15 -8 0 -3 9 -6 20 -7 13 -1 18 2
13 10 -5 9 -3 9 8 0 8 -7 32 -13 52 -15 20 -1 37 -6 37 -11 0 -5 7 -4 15 3 8
7 15 8 15 3 0 -5 7 -10 15 -10 8 0 15 5 15 11 0 6 4 6 11 -1 7 -7 20 -8 34 -3
14 5 27 4 34 -3 7 -7 11 -7 11 -1 0 13 50 12 69 0 10 -7 12 -6 6 4 -6 10 -4
12 8 7 9 -3 18 -1 21 6 2 7 5 7 5 2 1 -10 71 -11 97 -1 7 3 16 1 19 -4 3 -5
17 0 30 12 13 12 22 26 18 31 -3 6 -1 7 5 3 12 -7 36 29 28 43 -3 5 1 11 9 14
8 4 12 15 10 27 -2 11 0 18 4 15 16 -9 19 35 4 50 -13 13 -12 15 4 15 15 0 16
2 3 10 -8 5 -11 10 -6 10 5 0 3 7 -4 15 -10 12 -10 15 1 15 12 0 12 2 1 9 -8
5 -15 20 -15 35 -1 14 -5 26 -9 26 -4 0 -5 7 -2 15 4 8 1 15 -5 15 -6 0 -8 6
-5 14 3 8 0 17 -6 21 -9 6 -9 10 1 16 10 6 11 9 2 9 -7 0 -13 9 -13 20 0 11
-5 20 -11 20 -5 0 -7 5 -4 10 4 6 1 18 -7 27 -9 12 -9 15 -1 9 9 -5 11 -2 7 8
-3 9 -9 16 -13 16 -4 0 -8 12 -9 27 -1 15 -5 29 -10 32 -7 6 -12 29 -14 69 0
12 -4 25 -9 28 -5 3 -9 14 -9 25 0 11 -4 18 -8 15 -5 -3 -8 8 -7 25 1 16 -4
37 -11 47 -7 9 -14 31 -14 49 0 17 -4 34 -10 38 -5 3 -7 12 -3 20 3 8 0 15 -7
15 -6 0 -8 5 -5 10 4 6 1 17 -5 25 -6 8 -9 18 -6 24 4 5 -2 12 -11 14 -17 4
-17 5 0 6 17 1 17 3 3 23 -19 27 -21 42 -3 32 6 -4 2 4 -10 17 -16 18 -19 28
-12 42 8 13 6 19 -4 23 -9 3 -14 16 -12 30 1 13 -2 24 -7 24 -6 0 -8 7 -4 15
3 8 1 15 -4 15 -5 0 -7 7 -4 15 4 8 2 15 -3 15 -8 0 -10 8 -15 64 -1 14 -5 23
-9 21 -3 -3 -7 7 -8 20 -3 48 -4 55 -13 55 -4 0 -8 10 -8 23 0 13 -5 28 -12
35 -9 9 -9 12 0 12 9 0 8 7 -3 23 -8 13 -12 27 -8 31 4 4 1 11 -7 16 -13 9
-13 10 0 10 12 0 12 2 2 9 -7 4 -15 21 -17 37 -2 16 -4 31 -5 34 -2 3 -2 8 -1
13 0 4 -3 7 -8 7 -6 0 -8 9 -6 20 2 11 -1 20 -7 20 -6 0 -8 9 -5 20 3 11 -1
27 -9 34 -11 11 -11 16 -1 19 9 4 9 6 0 6 -7 1 -13 6 -13 12 0 5 6 7 13 3 6
-4 4 2 -6 13 -9 11 -14 23 -10 26 3 4 2 7 -3 7 -9 0 -13 20 -15 77 -1 14 -6
20 -12 16 -6 -4 -8 0 -4 10 3 10 2 17 -2 17 -5 0 -7 9 -4 20 3 11 0 20 -6 20
-6 0 -8 7 -4 17 4 10 2 14 -4 10 -7 -5 -9 1 -5 15 3 11 1 19 -4 16 -5 -4 -10
5 -10 18 -1 13 2 22 6 19 5 -3 3 6 -3 20 -7 14 -15 25 -19 25 -4 0 -5 9 -3 20
2 11 1 20 -3 20 -4 0 -8 12 -10 28 -5 57 -7 67 -20 81 -10 11 -10 16 0 29 10
12 10 14 1 8 -9 -5 -13 0 -13 13 0 12 -4 21 -9 21 -5 0 -8 8 -6 18 1 9 -3 23
-9 31 -9 12 -8 13 4 6 13 -7 12 -5 -1 11 -8 10 -16 28 -17 39 -4 43 -7 60 -14
65 -3 3 -8 21 -10 40 -1 19 -7 38 -11 41 -4 3 -9 16 -10 27 -1 12 -5 22 -10
22 -5 0 -4 7 3 15 9 10 9 15 1 15 -6 0 -11 8 -11 18 0 10 -6 24 -12 31 -11 11
-10 12 0 6 11 -6 11 -3 3 14 -6 12 -16 30 -21 41 -7 13 -7 20 0 20 10 0 8 7
-19 59 -7 12 -8 21 -3 17 5 -3 9 1 9 9 0 8 -4 12 -9 9 -7 -5 -12 13 -11 44 1
6 -3 12 -8 12 -5 0 -6 7 -3 15 4 9 0 15 -7 15 -11 0 -11 3 1 10 12 7 12 10 1
10 -7 0 -11 6 -7 15 3 8 2 15 -3 15 -4 0 -8 6 -9 13 -1 21 -11 57 -18 69 -5 7
-3 8 5 3 10 -6 11 -3 1 15 -6 12 -10 31 -7 41 3 12 1 17 -6 12 -7 -4 -8 0 -4
11 4 10 3 15 -3 11 -6 -3 -11 5 -11 19 -1 26 -5 44 -9 49 -1 1 -3 10 -5 20 -2
10 -12 25 -22 34 -10 8 -11 11 -3 7 9 -4 12 -3 7 2 -13 14 -62 12 -76 -3z
m-3633 -539 c44 -12 17 -55 -37 -56 -17 -1 -37 5 -46 12 -14 12 -14 15 1 31
18 20 42 23 82 13z m3521 -21 c25 -22 16 -40 -23 -47 -34 -6 -76 19 -76 45 0
15 7 19 39 19 22 0 48 -7 60 -17z m515 -2164 c14 -7 23 -16 20 -20 -3 -5 0 -9
5 -9 16 0 13 -26 -5 -44 -22 -23 -76 -20 -102 4 -21 20 -29 59 -15 73 10 11
70 8 97 -4z m-4112 -96 c23 -20 22 -25 -1 -51 -14 -17 -30 -22 -64 -22 -46 0
-57 10 -57 49 0 37 89 54 122 24z"/>
</g>
</svg>
