<?xml version="1.0" standalone="no"?>
<!DOCTYPE svg PUBLIC "-//W3C//DTD SVG 20010904//EN"
 "http://www.w3.org/TR/2001/REC-SVG-20010904/DTD/svg10.dtd">
<svg version="1.0" xmlns="http://www.w3.org/2000/svg"
 width="500.000000pt" height="500.000000pt" viewBox="0 0 500.000000 500.000000"
 preserveAspectRatio="xMidYMid meet">
<metadata>
Created by potrace 1.11, written by Peter Selinger 2001-2013
</metadata>
<g transform="translate(0.000000,500.000000) scale(0.100000,-0.100000)"
fill="#000000" stroke="none">
<path d="M2190 3498 c-6 -29 -32 -156 -58 -283 l-48 -230 -232 -3 -232 -2 0
-125 0 -125 205 0 205 0 -6 -27 c-3 -16 -25 -120 -48 -233 l-42 -205 -157 -3
-157 -3 0 -124 0 -125 130 0 c130 0 130 0 125 -22 -3 -13 -28 -131 -55 -263
-27 -132 -52 -250 -55 -262 -5 -23 -5 -23 118 -23 l123 0 59 285 59 285 273 0
c227 0 273 -2 273 -14 0 -8 -25 -134 -55 -281 -30 -146 -55 -268 -55 -271 0
-2 55 -3 122 -2 l122 3 48 230 c26 127 52 254 58 283 l11 52 230 0 229 0 0
125 0 125 -203 0 -204 0 34 163 c18 89 40 195 49 235 l16 72 154 0 154 0 0
125 0 125 -125 0 c-116 0 -125 1 -125 19 0 10 25 137 55 281 30 144 55 264 55
266 0 2 -55 4 -122 4 l-123 0 -38 -188 c-21 -103 -48 -231 -59 -284 l-21 -98
-273 0 c-155 0 -274 4 -274 9 0 5 25 127 55 271 30 144 55 268 55 276 0 11
-24 14 -119 14 l-120 0 -11 -52z m630 -782 c0 -8 -20 -111 -45 -230 -25 -119
-45 -219 -45 -221 0 -3 -124 -5 -275 -5 -151 0 -275 3 -275 8 0 4 21 109 47
235 l47 227 273 0 c228 0 273 -2 273 -14z"/>
</g>
</svg>
