<?xml version="1.0" standalone="no"?>
<!DOCTYPE svg PUBLIC "-//W3C//DTD SVG 20010904//EN"
 "http://www.w3.org/TR/2001/REC-SVG-20010904/DTD/svg10.dtd">
<svg version="1.0" xmlns="http://www.w3.org/2000/svg"
 width="500.000000pt" height="500.000000pt" viewBox="0 0 500.000000 500.000000"
 preserveAspectRatio="xMidYMid meet">
<metadata>
Created by potrace 1.11, written by Peter Selinger 2001-2013
</metadata>
<g transform="translate(0.000000,500.000000) scale(0.100000,-0.100000)"
fill="#000000" stroke="none">
<path d="M2595 4240 c-33 -4 -92 -8 -131 -9 -49 -1 -75 -6 -84 -15 -6 -8 -21
-16 -33 -18 -12 -2 -21 -9 -20 -16 2 -6 0 -11 -5 -9 -4 1 -8 -1 -9 -6 -2 -4
-14 -19 -28 -33 -42 -42 -106 -189 -134 -310 -11 -47 -15 -52 -52 -64 -44 -15
-69 -53 -103 -158 -10 -29 -25 -56 -35 -61 -22 -12 -32 -36 -124 -301 -66
-188 -139 -378 -182 -475 -23 -51 -67 -294 -81 -440 -12 -133 -12 -137 -25
-214 -11 -66 -10 -75 4 -86 13 -10 16 -35 18 -148 0 -74 -2 -141 -7 -148 -5
-8 -3 -10 5 -4 10 6 11 3 1 -15 -7 -13 -9 -36 -5 -59 4 -20 7 -107 6 -194 -1
-165 3 -183 46 -232 31 -36 126 -93 183 -109 70 -21 491 -91 674 -112 165 -19
217 -15 294 23 54 27 162 123 162 144 0 6 5 7 10 4 6 -4 9 -3 8 2 -4 12 21 53
33 53 6 0 7 -6 4 -12 -3 -7 5 1 19 18 l26 31 76 -39 c96 -48 146 -50 299 -7
146 40 154 45 184 109 22 47 26 69 26 150 0 163 -33 232 -219 454 -156 185
-293 373 -336 461 -43 87 -97 282 -129 468 -19 108 -36 277 -61 622 -14 190
-43 400 -70 506 -35 135 -101 262 -134 258 -6 -1 -38 -5 -71 -9z m-12 -17 c-7
-2 -19 -2 -25 0 -7 3 -2 5 12 5 14 0 19 -2 13 -5z m-7 -179 c-18 -85 -22 -95
-32 -70 -6 16 35 161 43 152 3 -2 -2 -39 -11 -82z m10 -241 c-10 -10 -19 5
-10 18 6 11 8 11 12 0 2 -7 1 -15 -2 -18z m-255 -44 c-5 -13 -10 -19 -10 -12
-1 15 10 45 15 40 3 -2 0 -15 -5 -28z m279 -1 c-61 -14 -160 -19 -160 -8 0 15
51 32 80 27 14 -2 36 -1 50 3 14 4 34 2 45 -3 18 -10 17 -12 -15 -19z m-328
-10 c-7 -7 -12 -8 -12 -2 0 14 12 26 19 19 2 -3 -1 -11 -7 -17z m-87 -608 c3
-5 1 -10 -4 -10 -6 0 -11 5 -11 10 0 6 2 10 4 10 3 0 8 -4 11 -10z m-65 -4 c0
-3 -4 -8 -10 -11 -5 -3 -10 -1 -10 4 0 6 5 11 10 11 6 0 10 -2 10 -4z m598
-291 c-3 -3 -9 2 -12 12 -6 14 -5 15 5 6 7 -7 10 -15 7 -18z m246 -286 c21
-46 58 -140 83 -209 53 -147 109 -267 227 -483 112 -206 130 -256 130 -377 1
-82 -3 -102 -24 -147 l-25 -53 -90 65 c-49 35 -125 96 -167 135 l-78 72 0 -97
c0 -73 -3 -96 -12 -93 -10 4 -14 66 -19 244 -3 131 -11 289 -18 351 -6 61 -10
132 -8 158 3 37 1 45 -12 40 -11 -4 -11 -1 3 14 11 12 15 25 10 33 -5 7 -9 33
-10 57 -1 24 -5 58 -8 75 -3 17 -10 92 -16 166 -6 74 -15 152 -20 175 -4 22
-11 74 -14 115 -4 64 -2 58 13 -41 13 -81 29 -140 55 -200z m-286 246 c-3 -3
-9 2 -12 12 -6 14 -5 15 5 6 7 -7 10 -15 7 -18z m-78 -10 c11 -13 10 -14 -4
-9 -9 3 -16 10 -16 15 0 13 6 11 20 -6z m204 -67 c8 -21 13 -38 11 -38 -5 0
-45 80 -45 89 0 13 20 -17 34 -51z m-47 -70 c-3 -8 -6 -5 -6 6 -1 11 2 17 5
13 3 -3 4 -12 1 -19z m70 16 c-3 -3 -2 -17 3 -30 11 -29 5 -32 -10 -4 -10 19
-6 40 7 40 4 0 4 -3 0 -6z m-49 -95 c-3 -8 -7 -3 -11 10 -4 17 -3 21 5 13 5
-5 8 -16 6 -23z m69 25 c-3 -3 -12 -4 -19 -1 -8 3 -5 6 6 6 11 1 17 -2 13 -5z
m-1 -40 c1 -9 0 -13 -4 -10 -3 4 -7 14 -8 22 -1 9 0 13 4 10 3 -4 7 -14 8 -22z
m14 -64 c6 -11 8 -20 6 -20 -3 0 -10 9 -16 20 -6 11 -8 20 -6 20 3 0 10 -9 16
-20z m7 -44 c-3 -8 -2 -17 4 -20 5 -2 4 -3 -2 -2 -15 3 -21 36 -7 36 6 0 8 -6
5 -14z m19 -97 c8 -37 14 -71 18 -104 2 -16 5 -34 6 -40 5 -20 0 -46 -8 -41
-4 2 -7 27 -7 55 0 28 -2 51 -5 51 -7 0 -9 11 -12 60 -1 17 -5 30 -8 30 -4 0
-7 7 -7 15 0 22 16 3 23 -26z m277 -173 c4 -10 1 -13 -8 -9 -8 3 -12 9 -9 14
7 12 11 11 17 -5z m37 -66 c0 -5 -5 -10 -11 -10 -5 0 -7 5 -4 10 3 6 8 10 11
10 2 0 4 -4 4 -10z m-1640 -57 c0 -19 -3 -24 -10 -17 -6 6 -8 18 -4 27 9 24
14 21 14 -10z m695 -633 c14 0 25 5 25 10 0 14 27 12 33 -2 4 -10 8 -10 15 1
9 12 13 12 26 2 8 -7 20 -10 26 -6 5 3 11 -2 11 -12 1 -17 2 -17 6 0 3 11 14
17 34 17 23 0 29 -4 30 -22 0 -13 3 -17 6 -10 4 10 8 10 19 1 11 -9 14 -8 14
5 0 25 20 19 21 -6 1 -22 1 -22 8 2 l7 25 7 -25 7 -25 15 23 c21 28 29 28 50
-4 17 -26 17 -27 -4 -21 -16 4 -21 1 -21 -15 0 -19 -4 -20 -47 -15 -27 3 -104
11 -172 18 -105 11 -125 16 -129 31 -2 10 -11 18 -18 18 -8 0 -14 10 -14 23 1
20 2 20 11 5 5 -10 21 -18 34 -18z"/>
</g>
</svg>
