<?xml version="1.0" standalone="no"?>
<!DOCTYPE svg PUBLIC "-//W3C//DTD SVG 20010904//EN"
 "http://www.w3.org/TR/2001/REC-SVG-20010904/DTD/svg10.dtd">
<svg version="1.0" xmlns="http://www.w3.org/2000/svg"
 width="768.000000pt" height="768.000000pt" viewBox="0 0 768.000000 768.000000"
 preserveAspectRatio="xMidYMid meet">
<metadata>
Created by potrace 1.11, written by Peter Selinger 2001-2013
</metadata>
<g transform="translate(0.000000,768.000000) scale(0.100000,-0.100000)"
fill="#000000" stroke="none">
<path d="M3540 7677 c-3 -3 -24 -7 -47 -10 -57 -8 -96 -18 -109 -28 -6 -5 -19
-10 -30 -12 -30 -4 -144 -62 -195 -99 -200 -143 -313 -335 -326 -554 -7 -109
2 -111 113 -28 101 76 235 143 357 178 48 14 91 25 95 25 4 -1 9 0 12 1 34 13
278 21 286 9 3 -5 -12 -9 -33 -10 -149 -4 -314 -48 -460 -124 -71 -36 -124
-66 -133 -75 -3 -3 -23 -18 -45 -35 -52 -38 -77 -63 -103 -100 -31 -47 -45
-140 -28 -190 16 -44 94 -194 107 -205 3 -3 12 -16 18 -28 45 -85 293 -362
325 -362 7 0 31 21 52 48 48 59 184 195 247 247 27 22 81 61 120 87 40 26 77
51 82 55 24 20 323 163 339 163 4 0 22 6 39 14 18 8 149 54 292 101 420 141
583 231 720 396 24 28 96 142 92 145 -1 1 -21 -1 -45 -6 -47 -8 -259 -5 -307
5 -16 3 -50 11 -75 16 -25 6 -52 12 -60 14 -68 14 -439 146 -575 205 -67 28
-299 108 -331 113 -10 1 -23 5 -29 9 -5 3 -30 9 -55 13 -25 4 -54 10 -65 12
-29 7 -239 16 -245 10z"/>
<path d="M2649 6808 c-191 -321 -289 -636 -292 -933 -1 -122 9 -238 26 -305 4
-14 9 -38 12 -55 7 -37 13 -60 15 -60 1 0 3 -7 5 -15 16 -74 128 -325 162
-362 9 -10 13 -18 10 -18 -24 0 206 -292 308 -393 102 -100 238 -216 325 -277
19 -13 37 -27 40 -30 13 -14 130 -90 140 -90 5 0 10 -4 10 -10 0 -5 4 -10 9
-10 6 0 29 -13 53 -29 24 -16 93 -55 153 -86 l110 -57 13 43 c7 24 14 58 16
74 3 17 9 50 14 75 6 25 13 74 17 110 4 36 9 74 11 85 2 11 5 85 5 165 0 131
20 272 54 400 4 14 23 91 29 115 20 81 100 320 132 393 12 28 21 52 20 52 -9
0 120 242 162 305 72 107 165 209 246 270 47 35 34 42 -37 20 -28 -9 -59 -17
-67 -19 -8 -2 -24 -6 -35 -11 -11 -4 -60 -23 -110 -43 -146 -57 -320 -156
-430 -245 -67 -54 -201 -192 -222 -228 -25 -41 -40 -43 -59 -6 -9 18 -20 34
-23 37 -4 3 -24 30 -46 60 -22 30 -59 80 -83 110 -24 30 -53 68 -65 83 -12 16
-29 36 -37 45 -8 10 -48 58 -89 107 -41 50 -79 95 -85 100 -23 21 -135 173
-188 255 -59 91 -110 194 -123 250 -1 3 -7 23 -13 46 -7 22 -14 67 -16 100 -2
32 -5 62 -5 67 -3 22 -23 -2 -72 -85z"/>
<path d="M1460 6738 c0 -41 -114 -263 -157 -306 -7 -8 -26 -30 -41 -50 -54
-72 -229 -240 -412 -397 -372 -319 -498 -472 -565 -685 -67 -215 -50 -419 51
-629 38 -78 60 -109 128 -175 49 -49 105 -94 143 -114 l62 -33 12 23 c7 13 11
25 10 28 -2 3 -7 12 -11 20 -13 24 -24 138 -24 245 0 116 8 178 34 275 7 25
11 45 10 45 -1 0 5 17 13 38 9 20 13 37 9 37 -4 0 -2 4 4 8 9 6 57 98 58 112
1 7 47 80 51 80 6 0 -8 -45 -15 -50 -9 -6 -54 -137 -74 -215 -33 -131 -38
-343 -11 -475 14 -72 19 -87 41 -120 36 -54 45 -63 94 -90 41 -23 55 -25 170
-24 105 1 235 8 235 14 0 1 14 3 30 5 120 13 365 90 365 115 0 6 -9 32 -21 58
-32 73 -46 109 -50 130 0 4 -7 22 -15 41 -8 18 -11 37 -8 42 3 5 1 9 -4 9 -5
0 -9 6 -9 13 0 6 -8 46 -16 87 -15 68 -21 109 -32 195 -5 38 -5 305 -1 365 5
60 16 149 22 180 2 14 6 39 8 55 3 17 16 100 29 185 31 188 34 206 43 295 10
93 11 262 2 300 -4 17 -9 46 -13 65 -3 19 -7 40 -9 45 -2 6 -6 24 -11 40 -23
88 -125 262 -125 213z"/>
<path d="M6207 6514 c-1 -1 -22 -4 -47 -7 -71 -9 -175 -45 -241 -83 -93 -55
-91 -70 11 -100 94 -27 316 -146 328 -176 2 -4 8 -8 13 -8 15 0 199 -190 199
-205 0 -3 9 -15 19 -26 18 -20 92 -151 77 -138 -3 3 -21 26 -39 51 -68 97
-189 211 -294 280 -56 37 -213 118 -228 118 -2 0 -16 5 -32 12 -65 26 -143 33
-199 18 -73 -21 -130 -84 -196 -220 -30 -63 -61 -133 -68 -155 -7 -22 -15 -44
-19 -50 -3 -5 -7 -14 -8 -20 -1 -5 -14 -50 -27 -99 -24 -85 -28 -101 -42 -193
-7 -46 -5 -48 81 -58 49 -5 70 -8 149 -21 21 -3 68 -15 105 -25 36 -11 76 -22
89 -24 35 -8 229 -93 301 -132 85 -46 235 -143 239 -154 2 -5 8 -9 14 -9 5 0
15 -6 23 -12 7 -7 25 -22 41 -33 30 -22 134 -102 174 -135 87 -72 297 -225
360 -262 78 -46 201 -103 245 -113 6 -2 30 -8 53 -14 47 -13 218 -23 250 -14
19 4 18 6 -7 33 -40 43 -60 68 -97 126 -32 50 -95 177 -94 189 0 3 -7 19 -15
35 -9 17 -13 30 -10 30 3 0 -1 12 -8 28 -15 27 -32 87 -74 257 -2 11 -6 29 -8
40 -10 53 -16 81 -21 97 -6 20 -7 23 -34 158 -31 153 -77 321 -117 430 -19 52
-37 103 -40 113 -3 9 -9 17 -14 17 -5 0 -9 4 -9 10 0 39 -152 220 -229 273
-25 17 -48 33 -51 37 -29 33 -254 117 -342 126 -56 6 -157 12 -161 8z"/>
<path d="M5595 6481 c-2 -2 -28 -5 -57 -7 -84 -6 -217 -30 -346 -63 -84 -22
-137 -40 -202 -69 -19 -8 -36 -14 -38 -13 -5 4 -194 -100 -243 -135 -105 -73
-135 -98 -224 -189 -136 -140 -243 -299 -318 -475 -16 -36 -32 -73 -38 -82 -5
-10 -9 -26 -9 -36 0 -10 -3 -22 -7 -26 -5 -4 -8 -11 -9 -14 0 -4 -4 -14 -7
-22 -7 -16 -35 -116 -42 -146 -2 -11 -8 -34 -14 -53 -6 -18 -10 -36 -9 -40 1
-3 -4 -31 -10 -61 -50 -232 -61 -619 -27 -930 2 -14 3 -30 4 -37 1 -12 74 14
256 92 141 61 466 168 635 210 73 18 245 55 280 60 25 3 52 8 60 10 101 28
474 48 588 31 23 -3 59 -8 80 -11 47 -7 68 -11 110 -24 17 -5 32 -7 32 -4 0 3
6 1 13 -4 6 -5 32 -16 57 -23 25 -8 60 -23 78 -33 58 -34 36 2 -55 93 -107
106 -193 177 -287 237 -39 25 -82 53 -96 62 -28 19 -109 58 -200 96 -112 47
-291 85 -417 88 -47 1 -47 -6 3 102 15 33 28 62 29 65 1 3 9 22 18 44 9 21 17
44 17 50 0 7 4 16 9 21 8 10 89 250 96 286 2 11 7 24 10 29 3 5 8 20 10 32 6
33 50 175 97 313 90 263 183 417 315 521 26 22 49 44 51 49 2 9 -184 15 -193
6z"/>
<path d="M2196 5568 c-14 -46 -27 -94 -30 -108 -2 -14 -11 -56 -20 -95 -25
-117 -30 -173 -30 -345 0 -151 4 -211 19 -280 4 -14 8 -36 11 -50 15 -74 59
-195 100 -272 l25 -48 -43 -1 c-128 -2 -403 -42 -568 -84 -14 -3 -41 -8 -60
-11 -19 -2 -44 -8 -55 -11 -23 -8 -28 -9 -75 -18 -19 -3 -73 -14 -120 -24 -47
-11 -92 -19 -100 -19 -8 0 -24 -3 -36 -5 -82 -20 -264 -26 -370 -13 -53 6
-161 39 -206 62 -15 8 -29 14 -33 14 -10 0 -5 -29 7 -42 7 -8 18 -23 24 -33
32 -57 39 -70 44 -75 14 -14 50 -70 50 -79 0 -5 3 -11 8 -13 4 -1 27 -30 52
-63 25 -33 56 -73 70 -90 37 -45 228 -235 236 -235 3 0 21 -12 39 -27 160
-137 442 -265 655 -297 172 -27 369 -27 550 -1 47 7 118 21 130 25 3 1 10 3
15 4 30 5 89 21 165 44 47 14 87 27 90 27 3 1 16 6 30 12 14 6 51 20 82 31 32
12 66 26 75 30 10 5 79 39 153 75 145 70 265 140 400 232 47 32 87 60 90 62 8
7 -52 59 -225 194 -44 34 -87 69 -96 78 -9 9 -48 44 -87 79 -94 85 -260 250
-349 348 -67 74 -82 92 -124 141 -52 63 -169 223 -169 231 0 6 -4 12 -8 14
-19 7 -161 257 -177 308 -1 3 -9 22 -18 44 -9 21 -17 42 -17 47 0 4 -5 20 -11
36 -6 15 -10 29 -10 30 0 2 -5 17 -10 35 -10 31 -14 55 -24 133 -2 17 -5 32
-5 35 -1 3 -1 15 0 28 4 50 -20 17 -44 -60z"/>
<path d="M5497 4354 c-1 -1 -32 -4 -69 -8 -86 -8 -140 -16 -208 -30 -14 -3
-41 -9 -60 -13 -46 -9 -50 -10 -52 -12 -2 -2 -13 -4 -25 -7 -44 -8 -248 -76
-262 -88 -8 -6 -17 -10 -20 -10 -25 5 -316 -132 -439 -207 -35 -21 -66 -39
-69 -39 -2 0 -24 -13 -48 -30 -24 -16 -46 -30 -50 -30 -3 0 -11 -5 -18 -10 -7
-6 -23 -18 -36 -28 l-23 -18 63 -57 c112 -101 211 -174 329 -244 105 -62 213
-142 315 -233 65 -57 327 -323 373 -378 216 -259 351 -510 377 -702 13 -99 28
-92 51 25 23 120 28 151 39 255 6 58 6 276 1 315 -3 17 -7 48 -10 70 -3 22 -8
51 -11 65 -3 14 -7 34 -9 46 -2 12 -15 54 -27 95 -13 41 -23 76 -24 79 0 3 -6
14 -12 25 -6 11 -11 23 -12 28 0 4 -7 20 -16 36 -14 27 -13 30 3 29 20 0 130
10 187 18 22 3 51 7 65 8 14 2 39 6 55 10 17 3 46 8 65 11 19 2 69 11 110 20
41 9 91 18 110 21 19 3 42 7 50 9 8 2 31 7 50 10 19 3 58 10 85 15 143 27 210
34 345 34 170 0 253 -16 363 -71 63 -31 63 -22 0 88 -12 20 -27 47 -35 60 -7
13 -15 26 -18 29 -3 3 -25 34 -49 70 -41 60 -86 120 -136 179 -99 118 -357
341 -393 341 -6 0 -12 4 -14 9 -3 8 -199 111 -212 111 -3 0 -15 4 -28 9 -13 5
-26 9 -30 10 -4 1 -26 8 -48 16 -35 12 -128 36 -198 51 -55 11 -365 27 -375
18z"/>
<path d="M3630 3583 c-19 -8 -42 -17 -50 -18 -27 -6 -140 -55 -256 -111 -62
-30 -115 -54 -118 -54 -3 0 -17 -5 -33 -12 -15 -6 -30 -12 -33 -13 -3 0 -70
-22 -150 -47 -159 -51 -244 -76 -275 -82 -11 -3 -42 -10 -70 -16 -27 -6 -61
-14 -75 -16 -14 -3 -33 -7 -42 -10 -10 -3 -29 -7 -43 -10 -14 -2 -51 -8 -83
-13 -368 -62 -675 -40 -889 62 -38 18 -35 3 10 -44 99 -104 232 -211 367 -295
109 -68 302 -154 380 -170 14 -3 39 -9 55 -13 33 -10 86 -18 173 -27 32 -4 58
-7 59 -8 1 -1 -12 -30 -29 -66 -34 -72 -122 -291 -132 -330 -4 -14 -11 -34
-16 -45 -9 -21 -118 -349 -125 -375 -19 -74 -151 -364 -178 -392 -7 -7 -24
-29 -37 -48 -35 -50 -97 -109 -151 -146 -26 -17 -44 -35 -40 -40 9 -13 253 -6
373 11 176 25 305 57 448 112 52 20 98 41 101 46 3 5 9 8 13 8 14 -2 116 55
201 113 109 74 262 222 341 331 59 80 154 242 153 259 0 5 4 12 9 15 12 8 122
286 113 286 -1 0 2 13 8 28 22 56 66 264 77 357 3 30 8 64 10 75 16 83 24 523
11 645 -3 25 -5 51 -6 58 -1 16 -27 14 -71 -5z"/>
<path d="M3970 3573 c0 -5 -5 -37 -10 -73 -6 -36 -12 -94 -15 -130 -6 -69 -12
-129 -19 -170 -3 -14 -7 -43 -11 -65 -3 -22 -19 -107 -36 -190 -40 -195 -37
-184 -44 -205 -3 -10 -8 -27 -10 -37 -2 -10 -12 -45 -21 -78 -9 -33 -17 -67
-19 -75 -8 -41 -92 -278 -132 -375 -124 -297 -272 -508 -445 -638 -27 -20 -44
-38 -40 -41 7 -4 29 1 127 28 73 20 102 29 124 38 14 6 28 12 31 12 22 5 127
52 132 60 4 6 8 8 8 4 0 -8 177 88 197 107 8 8 20 15 28 15 7 0 15 7 19 15 3
8 11 15 17 15 21 0 171 139 254 235 14 17 47 63 72 103 52 81 49 81 104 -3 41
-62 184 -229 289 -338 52 -54 133 -138 180 -187 76 -79 121 -127 220 -240 17
-19 38 -47 47 -62 10 -16 21 -28 25 -28 4 0 8 -5 8 -12 0 -6 6 -19 14 -27 23
-27 94 -172 102 -208 1 -6 7 -27 13 -45 5 -18 12 -53 15 -78 3 -25 5 -46 5
-47 7 -28 87 122 149 277 65 164 118 366 132 500 5 55 3 344 -3 384 -19 120
-53 248 -90 340 -46 115 -172 330 -239 408 -13 14 -37 43 -54 65 -65 79 -253
258 -316 301 -13 9 -30 24 -39 34 -9 10 -19 18 -23 18 -5 0 -147 98 -173 120
-7 5 -15 10 -19 10 -3 0 -18 9 -34 20 -91 65 -467 250 -507 250 -7 0 -13 -3
-13 -7z"/>
<path d="M6587 3334 c-1 -1 -45 -4 -97 -8 -135 -9 -171 -15 -295 -46 -146 -37
-189 -55 -182 -77 3 -10 21 -61 40 -114 38 -106 48 -146 76 -289 29 -146 31
-381 6 -585 -3 -22 -7 -56 -10 -75 -2 -19 -4 -35 -5 -35 -2 0 -5 -19 -14 -75
-10 -57 -16 -91 -32 -170 -29 -146 -34 -175 -40 -220 -3 -25 -10 -65 -14 -89
-14 -78 -5 -349 14 -421 31 -116 126 -294 126 -237 0 24 94 201 140 262 24 33
96 112 160 175 131 130 140 139 305 275 66 55 131 109 144 120 211 175 350
329 415 458 33 68 79 187 71 187 -2 0 3 22 9 48 13 47 14 250 2 302 -3 14 -8
35 -10 46 -14 67 -74 204 -118 267 -51 74 -170 176 -241 208 -24 11 -30 10
-37 -2 -5 -8 -8 -21 -5 -29 13 -45 17 -88 21 -210 2 -74 -1 -155 -5 -180 -5
-25 -11 -58 -14 -75 -15 -87 -79 -244 -153 -372 -30 -52 -35 -38 -7 20 33 67
89 231 97 282 3 22 8 54 12 70 10 48 11 223 2 289 -15 114 -18 127 -38 165
-26 52 -91 106 -143 120 -35 9 -173 21 -180 15z"/>
<path d="M163 3262 c-29 -4 -29 -10 1 -41 77 -84 193 -313 221 -441 2 -8 13
-51 24 -95 11 -44 22 -91 25 -105 6 -31 24 -117 31 -150 3 -14 8 -41 11 -60 6
-40 12 -68 17 -90 2 -8 7 -37 11 -65 5 -27 19 -97 33 -155 13 -58 26 -114 28
-124 18 -83 119 -326 136 -326 5 0 9 -7 9 -15 0 -8 4 -15 8 -15 4 0 16 -14 25
-30 25 -42 132 -143 192 -181 28 -17 61 -39 75 -49 14 -9 63 -29 110 -45 47
-15 92 -31 100 -34 35 -16 244 -21 305 -9 17 4 44 9 60 13 17 3 68 25 115 48
108 54 117 76 38 102 -105 34 -257 115 -335 178 -39 32 -153 147 -185 187 -41
51 -131 200 -125 206 2 3 21 -22 42 -53 36 -54 159 -184 231 -244 40 -34 165
-109 229 -138 122 -55 155 -65 216 -65 91 2 157 42 212 131 28 45 90 164 111
213 26 60 58 144 61 161 2 9 13 49 25 90 18 61 27 103 32 159 2 28 -9 33 -117
45 -55 7 -185 38 -255 62 -25 8 -52 16 -60 18 -97 21 -430 209 -555 313 -11 9
-43 35 -70 57 -28 22 -56 45 -63 52 -8 8 -30 26 -50 41 -20 15 -44 34 -52 42
-48 45 -194 160 -278 219 -115 81 -281 159 -376 175 -105 18 -172 24 -213 18z"/>
<path d="M4463 1618 c-153 -210 -334 -378 -540 -502 -78 -47 -272 -142 -383
-189 -268 -112 -357 -151 -377 -164 -13 -9 -23 -13 -23 -9 0 3 -23 -8 -50 -24
-28 -17 -55 -30 -60 -30 -6 0 -10 -4 -10 -10 0 -5 -5 -10 -11 -10 -23 0 -139
-88 -209 -159 -65 -67 -141 -176 -163 -234 -8 -20 -14 -20 118 2 49 9 242 7
300 -3 59 -9 101 -17 145 -27 25 -6 53 -12 62 -14 45 -9 220 -59 336 -96 70
-22 138 -42 151 -45 14 -3 28 -7 33 -10 5 -3 20 -7 34 -10 14 -3 44 -11 67
-18 23 -8 60 -17 82 -22 54 -10 55 -10 117 -24 116 -26 319 -20 433 13 82 24
206 86 264 132 60 48 127 114 166 165 45 59 110 170 99 170 -4 0 -2 6 4 13 34
41 64 285 41 330 -14 25 -22 22 -79 -30 -67 -61 -162 -132 -177 -133 -6 0 -13
-3 -15 -7 -5 -13 -101 -61 -172 -88 -106 -40 -216 -63 -339 -70 -31 -2 -59 0
-61 4 -3 4 10 8 27 9 66 5 175 32 267 67 25 9 53 19 63 22 9 3 17 9 17 12 0 4
6 8 13 8 6 0 31 12 54 26 24 15 45 27 48 27 6 0 65 39 75 50 3 3 21 17 41 32
46 34 114 101 134 132 32 49 42 140 22 200 -15 43 -102 182 -149 238 -13 15
-33 40 -45 55 -62 81 -272 273 -297 273 -8 0 -32 -24 -53 -52z m-233 -1098 c0
-5 -5 -10 -11 -10 -5 0 -7 5 -4 10 3 6 8 10 11 10 2 0 4 -4 4 -10z"/>
</g>
</svg>
