<?xml version="1.0" standalone="no"?>
<!DOCTYPE svg PUBLIC "-//W3C//DTD SVG 20010904//EN"
 "http://www.w3.org/TR/2001/REC-SVG-20010904/DTD/svg10.dtd">
<svg version="1.0" xmlns="http://www.w3.org/2000/svg"
 width="500.000000pt" height="500.000000pt" viewBox="0 0 500.000000 500.000000"
 preserveAspectRatio="xMidYMid meet">
<metadata>
Created by potrace 1.11, written by Peter Selinger 2001-2013
</metadata>
<g transform="translate(0.000000,500.000000) scale(0.100000,-0.100000)"
fill="#000000" stroke="none">
<path d="M2170 3393 c-18 -87 -44 -214 -59 -283 l-26 -125 -233 -3 -232 -2 0
-125 0 -125 205 0 206 0 -6 -32 c-4 -18 -25 -123 -49 -233 l-42 -200 -157 -3
-157 -3 0 -124 0 -125 130 0 c72 0 130 -2 130 -4 0 -4 -106 -515 -114 -548 -4
-16 7 -18 117 -18 l122 0 58 283 c32 155 60 283 61 285 2 1 127 1 278 0 l275
-3 -52 -250 c-29 -137 -56 -265 -59 -282 l-8 -33 121 0 c105 0 120 2 125 18 3
9 28 127 56 262 27 135 52 255 55 268 l5 22 230 0 230 0 0 125 0 125 -206 0
c-191 0 -205 1 -200 18 3 9 24 107 46 217 23 110 43 208 46 218 5 15 21 17
160 17 l154 0 0 125 0 125 -131 0 c-119 0 -130 1 -125 18 3 9 28 130 56 267
28 138 54 258 56 268 5 16 -4 17 -117 15 l-123 -3 -47 -225 c-25 -124 -52
-251 -58 -282 l-12 -58 -275 0 c-216 0 -274 3 -274 13 0 7 25 131 55 275 30
145 55 267 55 272 0 6 -49 10 -119 10 l-118 0 -33 -157z m624 -825 c-19 -90
-41 -196 -50 -235 l-15 -73 -275 0 c-221 0 -274 3 -274 13 0 8 20 110 45 227
25 117 45 217 45 222 0 4 126 8 279 8 l279 0 -34 -162z"/>
</g>
</svg>
