<?xml version="1.0" standalone="no"?>
<!DOCTYPE svg PUBLIC "-//W3C//DTD SVG 20010904//EN"
 "http://www.w3.org/TR/2001/REC-SVG-20010904/DTD/svg10.dtd">
<svg version="1.0" xmlns="http://www.w3.org/2000/svg"
 width="260.000000pt" height="260.000000pt" viewBox="0 0 260.000000 260.000000"
 preserveAspectRatio="xMidYMid meet">
<metadata>
Created by potrace 1.11, written by Peter Selinger 2001-2013
</metadata>
<g transform="translate(0.000000,260.000000) scale(0.100000,-0.100000)"
fill="#000000" stroke="none">
<path d="M131 2391 c-11 -7 -10 -11 5 -19 10 -6 16 -13 12 -17 -3 -4 -16 3
-27 14 l-20 20 -1 -831 c0 -719 2 -830 14 -825 8 3 24 -3 36 -13 13 -11 27
-17 33 -13 6 3 7 1 3 -5 -4 -6 -14 -8 -24 -5 -18 7 -17 5 12 -17 13 -10 17
-10 12 -2 -4 6 -3 12 3 12 5 0 12 -6 14 -12 3 -8 6 -6 6 5 1 9 6 17 12 17 5 0
8 -4 5 -9 -3 -4 6 -13 19 -19 20 -9 23 -9 18 3 -3 8 -10 12 -16 8 -6 -4 -7 -1
-3 6 6 9 13 8 29 -6 11 -10 17 -13 14 -6 -5 8 0 11 13 10 13 -1 19 -6 15 -15
-2 -7 0 -10 5 -7 6 3 10 13 10 21 0 8 5 14 11 14 5 0 8 -4 5 -9 -3 -4 6 -13
19 -19 21 -10 23 -9 18 6 -6 15 -5 16 12 2 10 -8 16 -10 12 -3 -5 8 0 11 13
10 13 -1 19 -6 15 -15 -2 -7 0 -10 5 -7 6 3 10 13 10 21 0 8 5 14 11 14 5 0 8
-4 5 -9 -3 -4 6 -13 19 -19 21 -10 23 -9 18 6 -6 15 -5 16 12 2 10 -8 16 -10
12 -3 -5 8 0 11 13 10 13 -1 19 -6 15 -15 -2 -7 0 -10 5 -7 6 3 10 14 10 23 0
11 3 13 8 6 4 -6 18 -16 32 -23 l25 -12 -24 20 c-27 24 -16 28 16 6 14 -10 24
-12 28 -5 4 6 11 8 16 4 5 -3 6 -10 3 -16 -4 -7 -2 -8 5 -4 6 4 9 12 6 17 -4
5 -2 9 4 9 5 0 12 -6 14 -12 4 -10 6 -10 6 0 1 6 6 12 12 12 5 0 8 -4 5 -8 -2
-4 6 -8 19 -8 13 0 21 4 19 8 -6 10 10 11 20 1 11 -11 48 -14 41 -3 -3 5 1 10
9 10 8 0 19 -7 24 -16 8 -15 10 -15 15 0 5 11 3 15 -5 10 -7 -4 -8 -3 -4 4 13
21 24 13 28 -23 3 -25 1 -31 -8 -24 -8 6 -13 3 -17 -12 -4 -16 -9 -19 -24 -11
-13 7 -24 6 -38 -4 -10 -8 -14 -14 -9 -14 6 0 15 5 22 12 9 9 12 9 12 0 0 -13
-69 -34 -84 -25 -6 4 -4 -2 4 -12 14 -17 14 -18 -9 -5 -21 11 -23 10 -18 -3 5
-12 -1 -15 -30 -12 -20 2 -32 0 -27 -3 5 -4 10 -13 12 -21 3 -12 0 -12 -12 -1
-10 7 -16 8 -16 2 0 -6 -9 -9 -20 -7 -11 2 -18 0 -15 -6 9 -13 -9 -11 -25 3
-12 11 -12 10 -2 -3 10 -13 9 -19 -3 -29 -8 -7 -15 -9 -15 -4 0 4 -5 3 -12 -4
-16 -16 -31 -15 -22 1 4 6 -2 3 -14 -7 -24 -21 -29 -32 -10 -20 7 5 8 3 4 -5
-5 -7 -15 -10 -23 -6 -14 5 -14 3 -2 -12 9 -11 10 -14 2 -9 -8 4 -13 2 -13 -6
0 -9 -3 -9 -10 2 -7 11 -10 11 -10 2 0 -7 -4 -10 -10 -7 -6 3 -7 -1 -4 -9 5
-12 0 -16 -17 -16 -16 0 -20 -3 -11 -8 18 -12 -22 -47 -40 -36 -9 6 -9 3 1
-10 12 -15 12 -17 0 -14 -8 2 -13 -3 -11 -9 1 -7 -4 -13 -10 -14 -7 0 -4 -4 7
-9 l20 -9 -20 0 c-15 -1 -17 -3 -6 -10 7 -5 14 -22 14 -38 2 -28 3 -29 57 -28
30 0 61 4 69 9 10 6 12 6 7 -2 -5 -8 1 -12 14 -12 14 0 19 4 14 13 -6 9 -5 9
7 1 10 -8 110 -12 336 -12 320 -1 322 -1 318 20 -3 11 -1 17 3 14 4 -4 7 -13
7 -19 0 -7 7 -12 15 -12 8 0 14 6 12 13 -1 8 2 11 8 7 6 -3 8 -10 5 -15 -3 -4
166 -8 375 -8 292 -1 379 2 374 11 -5 8 -3 8 7 0 19 -18 59 -16 83 4 18 15 19
15 8 1 -12 -15 -8 -16 47 -15 33 1 65 7 71 13 9 9 6 11 -12 10 -13 0 -27 -5
-31 -11 -5 -6 -7 -4 -4 5 2 8 9 16 15 16 7 1 18 2 25 3 8 1 7 4 -3 11 -11 7
-11 10 -2 10 8 0 10 5 6 12 -5 8 -2 8 10 -1 16 -13 16 -12 5 13 -11 23 -10 29
2 38 11 8 11 9 -3 4 -10 -3 -18 -1 -18 5 0 6 -5 7 -11 3 -8 -4 -9 1 -4 17 7
20 6 22 -7 12 -19 -17 -31 -4 -15 15 10 13 9 14 -2 8 -9 -6 -21 1 -37 19 -13
16 -24 32 -24 36 0 5 -6 6 -14 3 -8 -3 -17 0 -22 7 -5 8 -3 10 6 4 9 -5 11 -4
6 4 -4 6 -11 9 -16 6 -11 -7 -41 5 -35 15 3 4 -2 10 -10 13 -9 4 -13 1 -9 -11
2 -9 -3 -2 -11 16 -13 28 -18 32 -30 22 -12 -10 -15 -9 -15 2 0 10 -8 14 -25
13 -14 -2 -23 1 -19 6 5 8 -26 14 -50 10 -5 -1 -4 4 2 11 9 11 6 14 -18 12
-17 -1 -30 2 -30 7 0 5 -9 9 -21 9 -11 0 -17 5 -14 10 3 6 -2 10 -13 10 -10 0
-27 9 -37 20 -10 11 -22 20 -28 20 -5 0 1 -9 14 -20 13 -10 20 -19 15 -20 -5
0 -19 11 -31 24 -13 14 -27 22 -31 18 -5 -4 0 3 10 16 20 24 36 29 36 11 0 -5
-4 -8 -9 -4 -5 3 -12 1 -16 -4 -3 -6 4 -8 17 -5 13 3 28 6 33 7 6 2 16 6 23
10 6 5 12 4 12 -1 0 -12 53 -10 63 3 6 7 10 6 14 -3 4 -10 8 -9 18 5 13 17 14
17 20 0 4 -9 11 -17 17 -17 5 0 6 5 3 10 -3 6 4 10 15 10 17 0 21 -4 16 -17
-6 -17 -5 -17 8 0 10 14 15 15 19 5 4 -8 6 -7 6 5 1 9 6 17 12 17 5 0 7 -4 4
-10 -3 -5 -1 -10 5 -10 6 0 8 -5 4 -12 -5 -8 0 -7 11 2 21 18 67 21 77 6 5 -7
8 -4 8 7 0 9 5 17 11 17 5 0 7 -4 4 -10 -3 -5 -1 -10 5 -10 6 0 8 -5 4 -12 -5
-8 0 -7 11 2 21 18 67 21 77 6 5 -7 8 -4 8 7 0 9 5 17 11 17 5 0 7 -4 4 -10
-3 -5 -1 -10 5 -10 6 0 8 -4 5 -10 -10 -16 1 -11 16 7 12 14 12 16 0 8 -10 -6
-12 -4 -7 4 6 10 12 9 24 -2 28 -23 43 -29 40 -16 -2 6 3 14 11 17 10 3 11 0
5 -9 -7 -12 -5 -12 9 -1 21 18 70 24 60 8 -5 -7 -1 -4 8 6 9 9 19 14 23 11 3
-4 6 -1 6 6 0 7 5 9 10 6 6 -3 10 1 10 10 0 10 -5 13 -12 9 -6 -4 -8 -3 -4 4
3 6 15 9 26 7 17 -3 18 -1 11 14 -7 13 -6 18 4 18 8 0 12 -4 9 -8 -2 -4 -1
-10 4 -13 5 -3 8 8 8 25 0 17 -5 29 -12 29 -7 0 -15 4 -18 9 -4 5 2 7 12 4 17
-4 19 2 18 71 0 71 -4 81 -29 77 -5 -1 -6 3 -2 8 3 6 11 8 18 5 10 -4 13 121
12 623 0 472 -3 628 -12 628 -6 0 -15 3 -19 7 -3 4 2 6 13 4 18 -4 20 1 19 47
-1 29 -7 51 -12 50 -5 -1 -16 4 -24 10 -13 10 -13 10 -1 -5 7 -10 18 -15 24
-11 6 3 7 1 3 -5 -7 -12 -36 -5 -36 8 0 5 -8 16 -17 26 -16 16 -16 16 4 10 14
-5 23 -2 27 10 5 14 4 15 -9 4 -10 -8 -15 -9 -15 -1 0 13 -2287 16 -2309 2z
m2359 -85 c0 -3 -4 -8 -10 -11 -5 -3 -10 -1 -10 4 0 6 5 11 10 11 6 0 10 -2
10 -4z m-2157 -15 c5 -1 5 -7 2 -13 -4 -7 0 -5 8 5 8 9 17 17 20 17 4 0 3 -8
0 -17 -5 -15 -4 -16 8 -7 8 6 24 14 36 16 17 5 20 2 15 -11 -5 -14 -4 -14 12
-2 15 13 19 13 27 0 7 -11 9 -11 9 4 0 9 5 17 11 17 5 0 8 -4 5 -9 -3 -5 1
-12 10 -15 8 -3 13 -2 10 3 -3 5 5 11 18 13 19 4 23 1 18 -11 -5 -14 -4 -14
12 -2 15 13 19 13 27 0 7 -11 9 -11 9 4 0 9 5 17 11 17 5 0 8 -4 5 -9 -3 -5 1
-12 10 -15 8 -3 13 -2 10 3 -3 5 5 11 18 13 19 4 23 1 18 -11 -5 -14 -4 -14
12 -2 15 13 19 13 27 0 7 -11 9 -11 9 4 0 9 5 17 11 17 5 0 8 -4 5 -9 -3 -5 1
-12 10 -15 8 -3 13 -2 10 3 -3 5 5 11 18 13 19 4 23 1 18 -11 -5 -14 -4 -14
12 -2 15 13 19 13 27 0 7 -11 9 -11 9 4 0 9 5 17 11 17 5 0 8 -4 5 -9 -3 -5 1
-12 10 -15 10 -4 13 -2 8 6 -5 8 -2 9 9 5 10 -3 17 -2 17 3 0 6 4 10 10 10 5
0 6 -8 3 -17 -6 -16 -5 -16 11 -4 15 13 19 13 27 0 7 -11 9 -10 9 6 1 20 1 20
15 1 13 -17 18 -16 17 4 -1 12 61 2 69 -11 7 -12 12 -7 11 11 -1 12 61 2 69
-11 7 -12 12 -7 11 11 -1 12 61 2 69 -11 7 -12 12 -7 11 11 0 3 24 5 53 6 30
0 52 -3 49 -7 -7 -12 50 -6 58 6 4 6 8 1 8 -10 0 -15 2 -17 9 -6 5 8 14 10 22
5 17 -10 50 -13 44 -3 -3 3 6 9 19 11 19 4 23 1 18 -11 -5 -14 -4 -14 12 -2
15 13 19 13 27 0 7 -11 9 -11 9 4 0 9 5 17 11 17 5 0 8 -4 5 -9 -3 -5 1 -12
10 -15 8 -3 13 -2 10 3 -3 5 5 11 19 13 22 5 23 3 13 -10 -12 -13 -10 -14 11
-3 19 11 25 11 32 0 7 -11 9 -10 9 4 0 9 5 17 11 17 5 0 8 -4 5 -9 -3 -5 1
-12 10 -15 8 -3 13 -2 10 3 -3 5 5 11 18 13 19 4 23 1 18 -11 -5 -14 -4 -14
12 -2 15 13 19 13 27 0 7 -11 9 -11 9 4 0 9 5 17 11 17 5 0 8 -4 5 -9 -3 -5 1
-12 10 -15 10 -4 13 -2 8 6 -5 8 -2 9 9 5 10 -3 17 -3 17 2 0 4 10 7 23 5 12
-1 26 -3 30 -3 5 -1 5 -7 1 -13 -5 -9 -2 -9 9 1 12 9 17 10 17 2 0 -7 5 -9 10
-6 6 4 8 9 6 13 -2 4 9 7 26 6 16 0 34 -7 39 -15 7 -12 12 -7 11 11 -1 12 61
2 69 -11 7 -12 12 -7 11 11 -1 12 61 2 69 -11 7 -12 12 -7 11 11 0 4 32 4 71
1 5 -1 5 -7 2 -13 -4 -7 0 -5 8 5 8 9 17 17 20 17 4 0 3 -8 0 -17 -6 -16 -5
-16 11 -4 15 13 19 13 27 0 7 -11 9 -11 9 4 0 9 4 17 9 17 6 0 8 -9 6 -19 -2
-11 6 -27 17 -38 12 -10 18 -12 13 -4 -5 9 -4 12 3 7 17 -10 3 -36 -16 -28
-12 4 -10 -1 5 -18 12 -12 19 -28 15 -34 -11 -18 -13 -48 -2 -41 5 3 10 1 10
-4 0 -6 -6 -11 -14 -11 -8 0 -18 -5 -22 -12 -4 -7 -3 -8 4 -4 15 9 16 -67 1
-97 -9 -20 -9 -21 4 -4 13 16 15 16 21 2 3 -9 2 -13 -4 -10 -6 3 -10 2 -10 -4
0 -5 -3 -17 -7 -27 -5 -13 -3 -15 7 -9 8 5 11 4 7 -2 -13 -21 -16 -63 -4 -57
7 3 3 -2 -8 -12 -15 -12 -16 -15 -3 -11 19 7 30 -2 21 -17 -12 -18 -14 -48 -3
-41 5 3 10 1 10 -4 0 -6 -6 -11 -14 -11 -8 0 -18 -5 -22 -12 -4 -7 -3 -8 4 -4
15 9 16 -67 1 -97 -9 -20 -9 -21 4 -4 13 16 15 16 21 2 3 -9 2 -13 -4 -10 -6
3 -10 2 -10 -4 0 -5 -3 -17 -7 -27 -5 -13 -3 -15 7 -9 8 5 11 4 7 -2 -13 -21
-16 -63 -4 -57 7 3 3 -2 -8 -12 -15 -12 -16 -15 -3 -11 19 7 30 -2 21 -17 -12
-18 -14 -48 -3 -41 5 3 10 1 10 -4 0 -6 -6 -11 -14 -11 -8 0 -18 -5 -22 -12
-4 -7 -3 -8 4 -4 15 9 16 -67 1 -97 -9 -20 -9 -21 4 -4 13 16 15 16 21 2 3 -9
2 -13 -4 -10 -6 4 -10 -5 -10 -20 0 -18 4 -24 13 -19 9 5 9 3 -1 -7 -11 -12
-14 -12 -22 1 -5 8 -10 11 -10 6 0 -6 10 -20 22 -33 12 -13 16 -23 9 -23 -7 0
-9 -5 -5 -12 4 -6 3 -8 -3 -5 -5 3 -10 0 -10 -8 0 -8 4 -12 8 -10 4 3 10 -2
13 -11 4 -11 2 -15 -8 -11 -8 3 -20 0 -26 -8 -10 -12 -8 -13 10 -10 18 4 20 2
9 -11 -10 -12 -9 -13 7 -8 11 3 15 2 8 -3 -6 -4 -10 -16 -9 -25 2 -11 -3 -15
-16 -13 -10 2 -19 -2 -19 -8 0 -7 -4 -7 -9 3 -6 8 -7 18 -4 24 3 5 1 6 -5 3
-5 -4 -8 -17 -6 -30 2 -12 1 -16 -2 -9 -5 10 -9 10 -20 1 -8 -7 -18 -9 -21 -5
-4 4 -1 11 7 16 8 6 10 10 4 10 -6 0 -17 -7 -24 -15 -8 -10 -17 -11 -31 -5
-10 6 -27 14 -37 19 -14 7 -19 5 -19 -5 0 -7 4 -11 9 -8 4 3 8 0 8 -5 0 -16
-11 -13 -33 7 -11 9 -17 12 -14 6 9 -15 -100 -9 -118 6 -8 7 -12 5 -12 -5 0
-8 4 -12 9 -9 4 3 8 0 8 -5 0 -14 -17 -14 -25 -1 -5 8 -12 7 -23 -2 -12 -10
-14 -10 -8 0 9 16 -6 16 -23 0 -11 -11 -13 -10 -8 3 6 20 -24 19 -49 -2 -10
-8 -15 -9 -12 -4 4 6 -3 17 -15 25 -20 12 -21 12 -9 -3 8 -9 9 -18 3 -21 -5
-3 -11 0 -14 6 -3 10 -9 10 -27 0 -12 -8 -20 -10 -17 -5 3 4 -2 15 -11 23 -14
13 -15 12 -9 -4 5 -14 3 -17 -8 -12 -8 3 -15 0 -15 -7 0 -9 -2 -9 -9 1 -4 8
-19 11 -35 8 -23 -4 -26 -3 -16 10 10 11 10 14 -1 15 -10 0 -11 2 -1 6 6 2 12
11 12 18 0 7 7 16 16 19 8 3 13 10 9 15 -3 5 0 13 6 17 8 4 9 3 5 -4 -4 -7 -2
-12 3 -12 6 0 11 5 11 11 0 5 5 7 11 3 7 -4 7 1 -1 16 -7 13 -8 20 -2 16 6 -3
13 -2 17 4 3 5 0 10 -7 10 -8 0 -6 5 5 11 14 8 16 14 6 25 -8 10 -8 14 0 14 6
0 10 6 9 13 -2 6 3 11 10 9 8 -1 11 2 7 8 -4 6 -14 9 -22 6 -8 -3 -11 -1 -8 4
3 6 12 10 20 10 8 0 16 4 19 9 4 5 -4 7 -16 5 -13 -2 -17 -2 -10 2 6 3 12 10
12 15 0 6 -4 8 -9 5 -14 -9 -21 20 -8 34 8 9 9 11 1 7 -7 -4 -17 -1 -23 7 -9
10 -8 16 4 26 17 14 20 30 4 30 -5 0 -7 -5 -3 -12 5 -7 3 -8 -6 -3 -10 6 -9
11 5 21 11 9 16 22 13 38 -3 16 -1 23 8 19 16 -6 28 14 13 23 -8 5 -9 3 -4 -6
6 -9 4 -11 -5 -5 -10 6 -10 11 3 20 9 7 14 15 10 19 -11 11 -12 37 -1 30 7 -5
7 -1 0 12 -6 11 -7 27 -1 40 7 19 5 22 -9 17 -14 -5 -15 -3 -5 8 15 16 17 33
3 24 -6 -3 -10 1 -10 10 0 9 4 14 8 11 5 -3 9 1 9 9 0 7 -8 12 -17 10 -9 -2
-17 3 -17 10 0 7 7 11 16 8 13 -4 13 -2 -1 10 -14 11 -15 16 -5 27 9 9 9 11 0
6 -6 -3 -14 -2 -18 4 -3 5 -2 10 2 10 5 0 9 9 9 19 0 13 -4 17 -11 11 -7 -6
-17 1 -30 22 -12 22 -14 29 -4 24 8 -4 3 2 -11 13 -21 18 -22 20 -5 15 11 -3
8 2 -8 11 -19 11 -27 22 -23 32 6 14 4 14 -11 2 -15 -12 -16 -12 -9 6 4 11 4
16 0 13 -3 -4 -13 -1 -20 7 -8 8 -20 12 -28 9 -7 -3 -19 3 -27 13 -13 16 -12
17 3 5 12 -9 18 -10 23 -2 4 6 4 14 1 17 -3 4 -6 1 -6 -6 0 -7 -5 -9 -12 -5
-7 4 -26 9 -43 10 -44 2 -45 2 -46 22 0 16 -1 16 -7 0 -6 -15 -9 -13 -20 12
-8 17 -21 30 -30 30 -15 0 -15 2 -2 10 11 7 11 10 2 10 -8 0 -10 5 -6 12 5 8
2 9 -11 4 -16 -6 -16 -4 -4 10 13 16 12 16 -10 4 -21 -11 -26 -10 -38 6 -7 10
-13 12 -13 6 0 -9 -5 -10 -19 -2 -13 7 -22 7 -26 0 -3 -5 -11 -10 -16 -10 -6
0 -7 4 -4 10 3 6 -1 7 -9 4 -9 -3 -16 -11 -16 -17 0 -6 -6 -3 -13 8 -11 14
-16 15 -22 5 -6 -9 -4 -11 5 -5 9 5 11 4 6 -4 -6 -9 -11 -9 -24 1 -12 10 -14
10 -8 1 6 -12 0 -15 -20 -12 -4 0 -11 -5 -16 -13 -8 -10 -9 -10 -5 2 2 8 10
14 16 13 6 -2 11 2 11 7 0 14 -11 12 -34 -5 -10 -8 -22 -12 -27 -10 -4 3 -10
1 -14 -4 -3 -6 4 -8 15 -6 11 2 18 0 15 -5 -3 -4 -19 -7 -35 -6 -23 2 -29 -1
-25 -12 4 -11 2 -12 -7 -5 -16 12 -49 13 -42 1 3 -5 10 -6 15 -3 15 10 10 -2
-8 -16 -11 -10 -14 -10 -9 -1 4 6 3 12 -3 12 -5 0 -15 -8 -20 -17 -6 -10 -11
-14 -11 -8 0 5 -7 -1 -16 -13 -8 -12 -20 -22 -26 -22 -7 0 -3 7 8 15 17 14 15
14 -13 0 -18 -8 -33 -18 -33 -21 0 -3 4 -3 9 1 5 3 13 0 17 -6 5 -8 -1 -10
-19 -7 -24 5 -25 3 -15 -16 11 -20 10 -20 -7 -6 -17 14 -18 13 -12 -3 4 -11 3
-16 -3 -12 -6 3 -10 1 -10 -4 0 -6 -6 -10 -12 -9 -8 2 -12 -6 -12 -20 1 -14
-3 -21 -10 -19 -6 3 -18 -3 -26 -11 -13 -14 -12 -15 5 -9 19 7 19 6 3 -7 -21
-15 -24 -31 -5 -20 9 5 9 3 -1 -7 -11 -12 -14 -12 -22 1 -7 12 -9 10 -7 -7 0
-12 5 -19 9 -17 4 3 5 -2 2 -10 -3 -9 -10 -14 -14 -11 -4 3 -11 -3 -14 -12 -4
-9 -1 -20 6 -25 9 -5 5 -8 -11 -8 -24 0 -24 0 -5 -16 10 -8 13 -12 5 -8 -11 5
-13 3 -7 -11 5 -15 4 -16 -9 -5 -20 17 -19 6 1 -15 13 -12 14 -19 4 -30 -9
-11 -10 -15 -1 -15 7 0 9 -5 6 -10 -4 -6 -12 -7 -18 -3 -7 3 -4 -3 6 -14 14
-16 15 -23 6 -29 -8 -5 -10 -3 -4 6 6 9 4 11 -4 5 -9 -5 -9 -11 -3 -17 6 -6 8
-17 5 -24 -3 -8 1 -14 8 -14 10 0 10 -3 1 -12 -14 -14 -16 -32 -3 -24 12 8 20
-41 9 -52 -6 -6 -4 -15 5 -23 7 -8 11 -21 9 -29 -5 -13 -3 -13 14 -1 18 14 18
14 1 -5 -15 -16 -19 -17 -27 -4 -7 12 -9 10 -7 -7 0 -12 4 -20 8 -18 3 3 4 -7
1 -20 -2 -14 -7 -23 -11 -21 -4 3 -8 -7 -9 -22 -1 -21 0 -24 8 -12 5 8 10 11
10 6 0 -5 -7 -17 -16 -27 -12 -13 -12 -19 -3 -25 8 -4 10 -3 5 4 -4 7 -2 12 3
12 12 0 14 -13 4 -24 -13 -13 -10 -46 6 -59 14 -11 15 -10 1 8 -14 20 -14 20
7 2 15 -13 20 -26 17 -44 -5 -24 -3 -25 13 -12 10 7 15 10 11 5 -8 -10 14 -36
25 -29 4 2 7 1 8 -4 6 -48 4 -65 -9 -76 -13 -9 -14 -9 -8 1 4 6 2 12 -3 12 -6
0 -11 -6 -11 -12 0 -10 -3 -9 -9 1 -6 9 -11 10 -15 2 -9 -14 -26 -14 -26 0 0
5 5 7 12 3 7 -4 8 -3 4 5 -4 6 -12 9 -17 5 -5 -3 -17 0 -26 8 -10 8 -14 8 -10
1 5 -7 -2 -15 -15 -19 -34 -12 -48 -13 -48 -5 0 4 6 13 13 21 6 8 -1 4 -17
-10 -16 -14 -26 -20 -23 -14 4 7 0 15 -9 18 -8 3 -13 2 -10 -3 3 -5 -1 -12
-10 -15 -8 -3 -12 -2 -9 4 7 11 -8 14 -19 3 -10 -10 -36 -12 -36 -3 0 15 18
21 22 8 3 -8 6 -6 10 4 7 17 -7 19 -32 3 -17 -11 -49 -8 -66 6 -7 5 -11 3 -11
-6 0 -8 4 -12 9 -9 4 3 8 1 8 -5 0 -5 -9 -9 -20 -8 -14 1 -19 6 -15 17 5 12 4
12 -6 3 -10 -10 -15 -9 -26 5 -12 16 -12 15 -6 -3 6 -18 5 -19 -12 -5 -11 9
-16 10 -11 3 4 -7 4 -13 -1 -14 -4 0 -16 -2 -25 -4 -21 -4 -23 5 -5 25 6 8 -1
4 -17 -10 -16 -14 -26 -20 -23 -14 4 7 0 15 -9 18 -8 3 -13 2 -10 -3 3 -5 -1
-12 -10 -15 -11 -4 -15 -2 -11 8 5 12 2 12 -20 1 -30 -16 -53 -10 -53 14 0 14
-2 14 -11 1 -7 -11 -9 6 -6 58 2 40 1 69 -2 64 -3 -6 -6 18 -6 53 0 35 3 61 8
58 4 -2 7 3 7 12 0 10 -5 13 -13 9 -7 -5 -6 0 3 11 9 11 10 16 3 11 -7 -4 -13
-2 -13 3 0 6 8 11 18 11 13 0 14 2 4 9 -7 4 -15 20 -16 34 -2 15 1 24 5 21 5
-3 9 0 9 5 0 6 -8 12 -17 12 -17 1 -17 2 0 6 14 4 16 8 6 19 -9 11 -9 14 0 14
7 0 9 4 6 10 -13 21 -14 51 -2 43 7 -4 6 0 -2 10 -9 12 -10 17 -2 17 7 0 9 5
6 11 -10 15 -12 138 -3 133 4 -3 8 2 8 11 0 9 -3 14 -7 12 -5 -3 -8 28 -8 68
0 40 3 71 8 68 4 -2 7 3 7 12 0 9 -4 14 -8 11 -5 -3 -9 1 -9 9 0 8 4 12 9 9 4
-3 8 0 8 5 0 6 -8 12 -17 12 -17 1 -17 2 0 6 14 4 16 8 6 19 -9 11 -9 14 0 14
7 0 9 4 6 10 -13 21 -14 51 -2 43 7 -4 6 0 -2 10 -9 12 -10 17 -2 17 9 0 9 5
1 20 -9 16 -8 20 5 20 14 0 15 2 2 14 -9 10 -13 29 -10 56 3 25 -1 48 -9 58
-12 15 -11 16 5 3 17 -13 18 -13 15 3 -2 12 4 20 15 21 9 2 17 -1 17 -6 0 -6
5 -7 10 -4 6 4 8 9 6 13 -3 6 24 7 67 3z m1117 5 c0 -3 -4 -8 -10 -11 -5 -3
-10 -1 -10 4 0 6 5 11 10 11 6 0 10 -2 10 -4z m920 -32 c0 -8 -5 -12 -10 -9
-6 4 -8 11 -5 16 9 14 15 11 15 -7z m113 -85 c-8 -8 -13 -7 -18 2 -5 8 -4 10
3 5 7 -4 12 -2 12 5 0 7 3 9 7 6 4 -4 2 -12 -4 -18z m-1008 -79 c3 -5 1 -10
-4 -10 -6 0 -11 5 -11 10 0 6 2 10 4 10 3 0 8 -4 11 -10z m1009 2 c3 -5 -1 -9
-9 -9 -8 0 -12 4 -9 9 3 4 7 8 9 8 2 0 6 -4 9 -8z m-1123 -43 c5 -8 9 -10 9
-5 0 5 6 3 13 -3 8 -6 13 -24 12 -40 -1 -17 2 -28 7 -25 4 3 8 0 8 -7 0 -7 3
-10 6 -7 3 4 1 17 -6 30 -11 22 -10 22 4 4 9 -11 16 -24 16 -30 0 -5 3 -7 6
-3 3 3 17 2 30 -3 15 -6 26 -5 30 2 5 7 3 8 -6 3 -9 -6 -11 -4 -5 5 6 10 11
10 20 -3 7 -9 15 -14 18 -10 4 3 7 1 7 -5 0 -7 5 -12 11 -12 5 0 7 4 4 10 -3
6 1 7 10 4 14 -6 14 -8 -2 -20 -17 -13 -17 -14 -1 -8 11 4 20 0 24 -10 3 -9
10 -16 16 -16 15 0 38 -27 30 -35 -4 -5 2 -5 13 -2 l20 7 -20 -16 c-20 -15
-20 -16 4 -12 15 2 26 -3 28 -12 4 -13 3 -13 -6 0 -9 13 -11 13 -11 -2 0 -10
5 -18 10 -18 6 0 10 -6 9 -12 -3 -25 1 -39 9 -34 5 3 9 -1 9 -9 0 -8 -4 -12
-9 -9 -4 3 -8 1 -8 -5 0 -5 5 -11 12 -13 6 -2 12 -12 14 -21 1 -9 -2 -15 -7
-11 -5 3 -5 -5 0 -19 7 -17 6 -30 -4 -44 -12 -17 -12 -20 0 -20 8 0 11 5 8 11
-3 6 -2 7 2 3 15 -13 14 -36 -1 -30 -12 4 -12 0 -5 -21 9 -21 7 -27 -10 -37
-20 -10 -20 -11 -3 -30 16 -17 16 -19 1 -14 -13 5 -15 2 -12 -15 3 -15 0 -20
-9 -17 -9 4 -12 -2 -8 -19 2 -14 9 -21 16 -17 6 4 5 -1 -3 -10 -9 -11 -10 -17
-2 -17 6 0 11 -7 11 -16 0 -9 5 -12 13 -8 7 5 6 0 -3 -11 -13 -17 -13 -18 0
-13 11 4 16 -2 17 -24 0 -20 -2 -26 -7 -17 -5 7 -7 16 -5 19 2 4 -2 7 -10 7
-11 0 -12 -3 -3 -14 8 -10 8 -17 0 -25 -9 -9 -8 -15 1 -27 10 -12 9 -14 -5 -8
-10 3 -17 3 -17 -1 3 -20 -2 -32 -13 -29 -7 1 -12 -4 -11 -10 2 -7 -2 -13 -8
-13 -6 0 -9 -9 -6 -20 4 -17 2 -18 -15 -9 -18 10 -18 9 -8 -10 6 -12 7 -27 3
-34 -4 -6 -8 -15 -8 -19 0 -3 -4 -10 -9 -15 -6 -5 -6 -2 -1 7 8 13 7 13 -8 1
-18 -14 -23 -26 -8 -17 5 3 11 -1 15 -9 3 -8 2 -14 -2 -14 -19 3 -25 -2 -12
-11 13 -8 13 -10 -1 -10 -10 0 -16 -7 -15 -17 0 -10 -4 -17 -11 -16 -8 2 -10
-4 -6 -14 5 -12 3 -14 -7 -8 -10 6 -12 3 -7 -14 5 -19 3 -20 -9 -10 -12 10
-15 10 -12 -2 2 -8 8 -17 13 -21 6 -5 3 -8 -7 -8 -12 0 -15 -5 -11 -17 5 -12
3 -14 -8 -8 -11 7 -11 5 1 -10 9 -11 10 -16 3 -11 -7 4 -13 2 -13 -3 0 -6 5
-11 10 -11 6 0 10 -7 10 -16 0 -8 -4 -12 -10 -9 -5 3 -10 2 -10 -4 0 -5 5 -11
10 -13 13 -4 22 -48 10 -48 -5 0 -7 -7 -4 -15 4 -8 11 -12 18 -8 6 3 2 -3 -8
-15 -11 -12 -16 -22 -12 -22 4 0 2 -9 -4 -20 -8 -16 -8 -20 2 -18 8 2 12 -5
10 -16 -3 -13 1 -17 12 -13 12 5 13 2 6 -19 -9 -22 -8 -24 9 -14 16 8 23 4 41
-25 12 -19 26 -33 31 -30 5 4 6 -2 2 -12 -6 -16 -5 -16 10 -4 15 12 17 12 10
-4 -5 -15 -3 -17 12 -12 16 7 16 5 4 -9 -13 -16 -12 -16 7 -6 17 9 27 6 59
-21 26 -21 37 -26 32 -14 -9 23 -4 22 19 -5 10 -12 13 -18 5 -13 -10 6 -12 4
-7 -4 6 -9 11 -9 22 0 12 10 13 9 8 -6 -6 -15 -5 -16 17 -5 23 13 23 12 9 -5
-14 -17 -14 -18 8 -6 18 10 22 9 22 -4 0 -9 5 -13 10 -10 6 3 10 1 10 -4 0 -6
5 -11 11 -11 5 0 7 6 3 13 -6 8 -3 8 9 -1 9 -8 21 -11 26 -7 7 3 8 0 5 -9 -4
-12 0 -16 16 -16 11 0 19 -4 16 -9 -7 -10 18 -22 37 -17 6 1 9 1 5 -1 -4 -2
-4 -11 -1 -19 3 -7 9 -11 14 -8 5 3 6 -3 2 -12 -5 -13 -3 -15 7 -9 9 5 11 4 6
-3 -5 -9 -13 -9 -26 -2 -23 13 -33 13 -25 1 3 -5 1 -12 -4 -16 -6 -3 -8 4 -6
16 2 12 2 19 -2 15 -3 -3 -13 0 -22 6 -13 10 -14 10 -3 -2 18 -21 15 -25 -18
-25 -18 0 -30 5 -30 13 0 7 -5 10 -10 7 -6 -4 -8 -12 -4 -18 3 -7 -2 -3 -10 7
-16 20 -16 20 -16 0 -1 -18 -1 -18 -14 -1 -9 12 -15 14 -18 6 -3 -8 -29 -12
-75 -13 -39 -1 -69 2 -66 7 2 4 -1 7 -6 7 -6 0 -11 -6 -12 -12 0 -10 -2 -10
-6 0 -2 6 -9 12 -14 12 -6 0 -7 -5 -3 -12 4 -7 3 -8 -5 -4 -6 4 -19 2 -27 -5
-8 -7 -14 -8 -13 -3 1 5 1 16 0 24 -1 13 -3 13 -10 1 -6 -10 -31 -14 -79 -15
-39 -1 -68 2 -65 7 2 4 -1 7 -6 7 -6 0 -11 -6 -12 -12 0 -10 -2 -10 -6 0 -2 6
-9 12 -14 12 -6 0 -7 -5 -3 -11 3 -6 -6 -5 -22 3 -31 15 -70 16 -82 3 -4 -5 2
-5 13 -1 14 5 17 4 9 -4 -11 -11 -47 -3 -40 9 6 9 -51 8 -59 -1 -4 -4 1 -5 12
-4 23 4 35 -3 27 -15 -3 -5 -11 -6 -17 -2 -12 8 -17 9 -38 12 -5 0 -8 5 -5 9
5 9 -50 9 -59 0 -4 -4 1 -5 12 -4 23 4 35 -3 27 -15 -3 -5 -11 -6 -17 -2 -12
8 -17 9 -38 12 -5 0 -8 5 -5 9 5 9 -50 9 -59 0 -4 -4 1 -5 12 -4 23 4 35 -3
27 -15 -3 -5 -11 -6 -17 -2 -12 8 -17 9 -38 12 -5 0 -8 5 -5 9 3 5 -5 8 -17 7
-12 -1 -29 3 -37 8 -13 9 -13 9 -2 -3 7 -8 17 -16 23 -16 19 -3 20 -4 14 -14
-5 -8 -11 -7 -21 1 -7 6 -21 9 -29 5 -9 -3 -13 -2 -10 4 3 6 1 10 -4 10 -6 0
-11 -6 -12 -12 0 -10 -2 -10 -6 0 -2 6 -9 12 -14 12 -6 0 -7 -5 -3 -12 4 -7 3
-8 -5 -4 -6 4 -19 2 -27 -5 -8 -7 -14 -8 -13 -3 1 5 1 16 0 24 -1 13 -3 13
-10 1 -8 -13 -75 -21 -85 -10 -3 3 -23 3 -45 1 -27 -3 -39 -8 -34 -16 3 -6 1
-6 -8 1 -17 16 -43 17 -33 1 4 -6 -5 -3 -19 8 -14 10 -29 26 -32 34 -5 12 -4
13 6 3 20 -20 31 -15 23 10 -6 21 -6 21 13 4 16 -14 20 -14 20 -2 0 8 -4 12
-9 9 -17 -11 -7 9 14 27 17 16 24 17 36 6 13 -10 14 -9 7 2 -6 11 -4 13 8 8 9
-3 21 1 29 11 12 15 11 16 -4 3 -26 -19 -22 -8 4 15 12 10 18 13 14 7 -5 -10
2 -12 26 -9 26 3 33 8 32 24 -1 13 3 19 12 15 8 -3 11 -10 7 -16 -3 -6 -1 -7
6 -3 6 4 9 11 6 16 -3 5 5 14 17 21 22 12 22 11 8 -6 -14 -17 -14 -18 8 -6 12
6 22 16 22 20 0 5 7 12 16 15 15 6 15 4 3 -11 -13 -16 -12 -17 4 -4 9 7 17 20
17 27 0 8 3 13 8 13 19 -3 33 2 27 11 -4 6 1 7 11 3 12 -4 15 -3 10 5 -7 11 6
17 28 13 5 -1 3 6 -5 15 -9 12 -9 15 -1 10 7 -4 12 -2 12 4 0 6 4 9 9 6 11 -7
33 18 24 28 -4 3 2 13 14 21 21 15 36 52 24 59 -4 3 -5 23 -3 45 2 23 7 39 11
37 4 -3 7 4 7 14 0 15 -3 17 -15 7 -12 -9 -12 -6 2 15 15 24 15 27 1 21 -14
-5 -15 -3 -5 15 7 14 8 23 1 27 -6 4 -8 10 -5 15 8 12 -20 71 -30 63 -4 -5 -5
2 -2 15 4 18 2 22 -10 18 -11 -4 -13 -2 -9 9 3 10 -1 15 -11 15 -13 0 -14 3
-5 12 7 7 12 17 12 23 0 5 -5 3 -10 -5 -7 -11 -10 -11 -10 -2 0 8 -5 10 -12 6
-8 -5 -7 0 2 11 12 15 12 17 1 10 -11 -6 -13 -4 -8 8 3 9 -1 18 -10 21 -12 5
-13 9 -3 21 12 14 7 19 -13 16 -5 -1 -6 3 -2 8 3 6 11 9 18 7 7 -1 9 -1 4 1
-4 3 -4 10 0 16 3 7 3 9 -2 5 -9 -8 -35 16 -35 32 0 7 -7 9 -15 6 -9 -3 -18 1
-21 9 -4 8 -9 13 -13 11 -6 -4 -11 32 -11 82 0 12 -5 22 -10 22 -6 0 -2 8 8
18 9 11 21 17 25 14 5 -2 3 6 -4 19 -11 22 -11 23 5 10 9 -8 19 -11 23 -7 3 3
1 6 -6 6 -7 0 -9 5 -6 10 3 6 0 10 -7 10 -10 0 -9 3 2 9 8 6 19 7 25 3 5 -3 3
5 -6 18 -9 14 -21 25 -27 25 -6 0 -14 4 -19 9 -4 5 -3 6 4 2 6 -3 14 -2 18 4
3 5 -1 10 -11 10 -14 0 -15 2 -3 17 10 11 10 14 2 9 -7 -4 -13 -4 -14 1 0 4
-2 16 -4 26 -2 9 0 15 4 12 4 -2 8 2 8 10 0 8 -4 12 -8 10 -4 -3 -9 2 -12 10
-4 10 -1 12 11 8 14 -6 15 -4 5 9 -7 8 -10 18 -6 22 4 4 1 11 -7 16 -13 8 -12
10 3 10 9 0 17 5 17 11 0 5 -4 8 -9 5 -7 -5 -7 45 0 64 1 3 1 9 0 13 -1 5 2 6
7 3 4 -2 14 5 22 17 12 19 11 20 -2 10 -12 -10 -15 -10 -15 2 0 7 3 14 6 13
19 -2 30 4 35 18 6 15 4 15 -10 3 -16 -13 -16 -12 -5 9 7 13 17 20 24 15 7 -4
6 0 -2 10 -12 15 -12 17 3 11 14 -6 21 9 18 37 -1 4 6 6 15 5 9 0 18 5 21 13
3 9 0 11 -8 6 -8 -5 -11 -4 -7 3 4 5 18 9 32 8 13 -2 23 2 22 8 -1 6 8 12 20
14 12 2 27 11 35 20 12 15 11 16 -5 3 -9 -8 -19 -12 -21 -10 -2 2 8 13 22 23
14 11 22 14 18 8 -3 -6 -2 -13 4 -17 6 -3 10 4 10 17 1 20 2 21 11 6 12 -22
29 -23 29 -3 0 8 5 15 11 15 5 0 8 -4 5 -8 -3 -5 1 -9 9 -9 8 0 11 5 8 10 -4
6 1 8 11 4 11 -5 15 -3 10 5 -5 8 -2 9 11 4 14 -5 15 -4 7 6 -8 10 2 13 50 12
40 0 62 -5 69 -15z m1122 -40 c-8 -8 -13 -7 -18 2 -5 8 -4 10 3 5 7 -4 12 -2
12 5 0 7 3 9 7 6 4 -4 2 -12 -4 -18z m1 -77 c3 -5 -1 -9 -9 -9 -8 0 -12 4 -9
9 3 4 7 8 9 8 2 0 6 -4 9 -8z m-103 -35 c-10 -9 -11 -8 -5 6 3 10 9 15 12 12
3 -3 0 -11 -7 -18z m102 -48 c-8 -8 -13 -7 -18 2 -5 8 -4 10 3 5 7 -4 12 -2
12 5 0 7 3 9 7 6 4 -4 2 -12 -4 -18z m1 -77 c3 -5 -1 -9 -9 -9 -8 0 -12 4 -9
9 3 4 7 8 9 8 2 0 6 -4 9 -8z m-1 -83 c-8 -8 -13 -7 -18 2 -5 8 -4 10 3 5 7
-4 12 -2 12 5 0 7 3 9 7 6 4 -4 2 -12 -4 -18z m1 -77 c3 -5 -1 -9 -9 -9 -8 0
-12 4 -9 9 3 4 7 8 9 8 2 0 6 -4 9 -8z m-103 -35 c-10 -9 -11 -8 -5 6 3 10 9
15 12 12 3 -3 0 -11 -7 -18z m102 -48 c-8 -8 -13 -7 -18 2 -5 8 -4 10 3 5 7
-4 12 -2 12 5 0 7 3 9 7 6 4 -4 2 -12 -4 -18z m-1553 -59 c0 -5 -4 -10 -10
-10 -5 0 -10 5 -10 10 0 6 5 10 10 10 6 0 10 -4 10 -10z m1554 -18 c3 -5 -1
-9 -9 -9 -8 0 -12 4 -9 9 3 4 7 8 9 8 2 0 6 -4 9 -8z m-1 -83 c-8 -8 -13 -7
-18 2 -5 8 -4 10 3 5 7 -4 12 -2 12 5 0 7 3 9 7 6 4 -4 2 -12 -4 -18z m1 -77
c3 -5 -1 -9 -9 -9 -8 0 -12 4 -9 9 3 4 7 8 9 8 2 0 6 -4 9 -8z m-1 -83 c-8 -8
-13 -7 -18 2 -5 8 -4 10 3 5 7 -4 12 -2 12 5 0 7 3 9 7 6 4 -4 2 -12 -4 -18z
m0 -80 c-8 -8 -13 -7 -18 2 -6 8 -4 10 5 4 10 -6 12 -4 6 11 -6 15 -5 17 5 7
9 -10 10 -16 2 -24z m-1713 -39 c0 -5 -5 -10 -11 -10 -5 0 -7 5 -4 10 3 6 8
10 11 10 2 0 4 -4 4 -10z m1713 -45 c-9 -16 -10 -16 -16 -1 -5 12 -3 15 5 10
8 -5 9 -1 4 12 -5 14 -4 16 4 7 8 -7 9 -17 3 -28z m-2216 -60 c4 -4 3 -5 -3
-2 -6 3 -11 -1 -11 -9 0 -10 4 -11 10 -5 7 7 15 7 26 -2 9 -8 12 -8 8 -1 -4 7
1 18 10 25 12 10 14 10 9 2 -4 -7 -4 -13 1 -14 4 0 18 -2 31 -3 14 -2 22 3 22
13 1 13 2 13 11 -2 10 -17 12 -17 36 -2 14 10 22 12 19 6 -4 -6 -4 -11 1 -12
4 0 18 -2 31 -3 14 -2 22 3 22 13 1 13 2 13 11 -2 10 -17 12 -17 36 -2 14 10
22 12 19 6 -4 -6 -4 -11 1 -12 4 0 18 -2 31 -3 14 -2 22 3 22 13 0 11 3 11 16
-5 8 -10 13 -14 10 -8 -8 15 21 26 30 12 4 -7 3 -8 -4 -4 -8 5 -10 2 -6 -8 5
-13 9 -12 25 7 10 12 18 17 19 12 0 -6 -6 -17 -12 -25 -11 -12 -10 -12 2 -4 8
6 30 10 48 9 23 0 32 4 32 15 1 12 2 12 11 -2 5 -9 16 -15 24 -12 8 4 13 9 10
13 -2 4 2 8 10 8 8 0 12 -4 10 -8 -10 -15 24 -17 46 -2 13 9 21 13 17 9 -4 -5
13 -25 37 -46 24 -21 41 -41 38 -44 -4 -3 -2 -6 4 -6 16 0 24 -28 11 -36 -6
-4 -8 -3 -4 4 3 6 3 13 -2 16 -4 2 -8 -6 -8 -20 0 -13 3 -24 8 -24 4 0 5 -7 2
-15 -4 -8 -10 -12 -15 -9 -5 3 -6 -2 -3 -10 3 -9 11 -13 17 -9 6 3 7 1 3 -6
-6 -9 -11 -9 -22 0 -11 9 -14 8 -14 -5 0 -9 -4 -16 -10 -16 -5 0 -7 8 -4 18 5
14 3 14 -10 -2 -16 -20 -16 -20 -17 0 0 10 -3 13 -6 7 -2 -7 -9 -13 -14 -13
-6 0 -8 4 -5 8 3 5 -1 9 -9 9 -8 0 -11 -5 -8 -10 4 -6 0 -8 -10 -4 -9 3 -19 2
-22 -3 -4 -6 -12 -10 -18 -9 -9 0 -8 2 1 6 6 2 10 9 6 14 -3 5 -11 6 -17 2
-20 -13 -41 -12 -49 0 -5 8 -8 6 -8 -5 0 -10 -4 -18 -10 -18 -5 0 -7 7 -3 16
6 15 4 15 -19 0 -26 -17 -40 -13 -31 10 3 8 0 14 -6 14 -6 0 -10 -5 -9 -12 4
-16 -64 -19 -74 -4 -5 7 -8 4 -8 -6 0 -10 -4 -18 -10 -18 -5 0 -7 7 -3 16 6
15 4 15 -19 0 -26 -17 -40 -13 -31 10 3 8 0 14 -7 14 -6 0 -9 -4 -5 -9 8 -13
-12 -24 -27 -14 -22 13 -38 12 -38 -4 0 -11 -5 -13 -17 -8 -10 4 -24 8 -30 8
-7 0 -13 3 -13 7 0 3 -10 6 -21 7 -19 2 -20 1 -5 -10 17 -13 12 -14 -48 -8 -4
1 -5 9 -2 19 6 16 5 16 -8 0 -14 -20 -62 -26 -50 -7 4 8 1 8 -13 1 -15 -8 -21
-7 -29 6 -13 21 -8 96 7 101 8 2 7 6 -2 11 -7 5 -14 16 -15 24 -1 9 2 13 7 10
6 -3 8 5 5 20 -3 19 -1 23 11 19 10 -4 14 -2 10 4 -8 13 19 11 30 -2z m1448
-9 c11 -15 13 -15 19 -1 4 11 2 14 -7 9 -6 -4 -8 -3 -4 1 10 12 38 15 31 4 -3
-5 -2 -9 3 -10 4 0 18 -2 31 -3 14 -2 22 3 22 13 0 12 3 11 13 -3 12 -17 15
-17 28 -4 10 11 16 12 24 4 7 -7 47 -10 101 -10 52 1 95 -3 104 -10 8 -6 6 0
-5 13 l-20 24 22 -12 c30 -15 76 -15 67 2 -5 9 -4 9 6 0 9 -9 17 -9 26 -2 8 7
14 6 20 -2 5 -8 3 -9 -6 -4 -8 5 -11 4 -6 -3 4 -7 17 -7 42 0 73 20 87 18 67
-7 -5 -6 -4 -7 1 -3 5 4 15 3 23 -3 9 -8 13 -8 13 0 0 6 -5 11 -11 11 -5 0 -7
5 -3 11 5 8 9 8 14 -1 4 -7 13 -10 19 -6 7 5 8 1 4 -10 -4 -10 -2 -15 3 -11 6
3 16 -3 23 -15 7 -11 8 -17 2 -13 -9 5 -13 -7 -10 -31 0 -4 -5 -11 -13 -16
-10 -8 -9 -9 4 -5 9 4 19 -1 22 -10 4 -10 2 -14 -8 -10 -8 3 -19 0 -25 -7 -8
-9 -7 -13 4 -13 8 0 11 5 8 10 -3 6 -2 7 4 4 24 -15 1 -69 -25 -60 -15 6 -16
5 -2 -13 14 -18 13 -18 -9 1 -14 11 -21 14 -17 8 7 -12 -7 -18 -29 -13 -5 1
-26 3 -45 4 -25 1 -34 5 -32 16 3 12 1 13 -9 3 -18 -18 -34 -16 -19 2 10 12
10 18 0 30 -17 21 -5 19 16 -2 17 -17 17 -17 12 5 -5 17 -3 21 6 13 8 -7 12
-5 13 10 1 11 -2 17 -7 14 -11 -7 -7 22 5 32 4 4 5 2 0 -6 -6 -10 -4 -12 4 -7
9 6 9 11 0 22 -14 17 -23 18 -13 2 4 -7 -2 -4 -13 7 -11 11 -18 24 -15 29 3 5
-1 6 -8 1 -9 -6 -12 -4 -8 7 4 8 1 15 -6 15 -8 0 -12 -11 -10 -31 3 -25 2 -28
-7 -13 -5 9 -7 22 -3 29 4 7 3 8 -4 4 -7 -4 -10 -17 -8 -29 5 -30 -12 -51 -30
-37 -9 9 -12 7 -10 -7 2 -11 10 -17 21 -15 10 2 14 -1 10 -7 -3 -6 0 -14 9
-17 8 -3 17 -13 21 -22 4 -11 -2 -9 -20 8 -20 19 -28 21 -38 11 -10 -10 -8
-12 8 -9 15 2 19 -2 17 -17 -2 -15 0 -17 6 -6 6 9 12 10 16 3 4 -6 14 -8 24
-5 14 6 15 4 4 -9 -13 -17 -1 -35 16 -24 5 3 9 -1 9 -9 0 -11 -5 -11 -19 -4
-14 7 -24 7 -34 -2 -8 -7 -14 -8 -13 -3 4 21 -2 26 -17 13 -13 -10 -17 -10
-25 2 -5 8 -9 10 -9 5 0 -6 -5 -5 -12 2 -7 7 -17 12 -22 12 -6 0 -4 -5 4 -10
13 -8 12 -10 -2 -10 -10 0 -18 4 -18 8 0 4 -11 8 -24 8 -14 0 -22 -4 -19 -10
4 -5 -1 -7 -10 -3 -9 3 -19 2 -22 -3 -4 -6 -12 -10 -18 -9 -9 0 -8 2 1 6 6 2
9 9 6 14 -3 6 -11 5 -20 -2 -8 -6 -14 -7 -14 -2 0 5 -10 9 -21 10 -19 2 -20 1
-5 -10 17 -13 9 -14 -46 -8 -5 1 -9 9 -9 19 -1 16 -2 16 -6 0 -2 -10 -12 -18
-21 -18 -15 0 -15 2 -2 11 12 9 12 10 -3 5 -10 -3 -21 -6 -23 -6 -3 0 -2 -4 1
-10 3 -6 -1 -7 -9 -4 -9 3 -16 10 -16 15 0 5 -5 9 -11 9 -6 0 -9 -6 -6 -13 5
-14 -30 -16 -51 -3 -7 4 -12 2 -12 -4 0 -6 -5 -8 -10 -5 -6 4 -8 11 -5 16 3 5
-1 6 -9 3 -9 -3 -13 -11 -9 -17 3 -6 1 -7 -6 -3 -6 4 -8 12 -5 18 5 7 2 9 -8
5 -12 -4 -15 0 -11 16 3 16 2 18 -5 9 -6 -9 -9 -4 -10 18 -1 26 3 31 16 26 15
-5 15 -4 -1 8 -16 12 -16 14 -1 20 13 5 14 9 4 21 -12 15 -4 20 22 16 4 0 5 6
1 15 -5 13 -7 13 -14 2 -5 -7 -9 -8 -9 -2 0 19 13 24 28 11 11 -8 14 -8 9 0
-4 7 1 14 13 18 11 4 18 10 15 15 -10 16 28 3 40 -14z m250 6 c-3 -3 -11 0
-18 7 -9 10 -8 11 6 5 10 -3 15 -9 12 -12z m80 0 c-3 -3 -11 0 -18 7 -9 10 -8
11 6 5 10 -3 15 -9 12 -12z m-1081 -38 c7 -19 2 -18 -19 6 -16 17 -16 20 -3
15 9 -4 19 -13 22 -21z m1216 -9 c7 -9 8 -15 2 -15 -5 0 -12 7 -16 15 -3 8 -4
15 -2 15 2 0 9 -7 16 -15z m310 -33 c0 -5 -6 -16 -13 -26 -12 -16 -13 -16 -13
3 0 11 4 17 8 15 4 -3 8 0 8 5 0 6 2 11 5 11 3 0 5 -4 5 -8z m-469 -129 c13
-16 12 -17 -3 -4 -17 13 -22 21 -14 21 2 0 10 -8 17 -17z m-518 -58 c-7 -21
-12 -19 -10 4 0 11 5 18 9 15 4 -3 5 -11 1 -19z m-693 -29 c0 -3 -4 -8 -10
-11 -5 -3 -10 -1 -10 4 0 6 5 11 10 11 6 0 10 -2 10 -4z m1000 -10 c-7 -7 -13
-7 -20 0 -6 6 -3 10 10 10 13 0 16 -4 10 -10z m-1017 -209 c3 -7 -3 -13 -14
-13 -13 0 -15 3 -7 13 6 7 12 13 13 13 2 0 5 -6 8 -13z m548 -154 c12 -16 12
-17 -2 -6 -9 7 -20 9 -24 5 -5 -4 -5 -1 -1 6 9 16 11 15 27 -5z m-933 -95 c-6
-16 -21 -14 -24 4 -1 11 3 15 12 11 8 -3 13 -10 12 -15z m237 3 c3 -5 2 -12
-3 -15 -5 -3 -9 1 -9 9 0 17 3 19 12 6z m960 0 c3 -5 2 -12 -3 -15 -5 -3 -9 1
-9 9 0 17 3 19 12 6z"/>
<path d="M1290 2279 c0 -5 5 -7 10 -4 6 3 10 8 10 11 0 2 -4 4 -10 4 -5 0 -10
-5 -10 -11z"/>
<path d="M1390 2190 c0 -5 5 -10 11 -10 5 0 7 5 4 10 -3 6 -8 10 -11 10 -2 0
-4 -4 -4 -10z"/>
<path d="M2358 2183 c6 -2 9 -10 5 -16 -11 -18 -12 -38 -2 -31 5 3 7 9 4 14
-3 5 -1 11 5 15 13 8 3 25 -13 24 -9 0 -8 -2 1 -6z"/>
<path d="M2363 1848 c-11 -19 -13 -39 -1 -32 5 3 7 9 4 12 -3 3 -1 11 5 19 6
7 9 13 6 13 -3 0 -9 -6 -14 -12z"/>
<path d="M1816 1673 c-6 -14 -5 -15 5 -6 7 7 10 15 7 18 -3 3 -9 -2 -12 -12z"/>
<path d="M2363 1528 c-11 -19 -13 -39 -1 -32 5 3 7 9 4 12 -3 3 -1 11 5 19 6
7 9 13 6 13 -3 0 -9 -6 -14 -12z"/>
<path d="M2350 1260 c0 -5 5 -10 11 -10 5 0 7 5 4 10 -3 6 -8 10 -11 10 -2 0
-4 -4 -4 -10z"/>
<path d="M2350 1129 c0 -5 5 -7 10 -4 6 3 10 8 10 11 0 2 -4 4 -10 4 -5 0 -10
-5 -10 -11z"/>
<path d="M1326 2062 c-3 -5 1 -9 9 -9 8 0 12 4 9 9 -3 4 -7 8 -9 8 -2 0 -6 -4
-9 -8z"/>
<path d="M1370 2040 c0 -5 5 -10 11 -10 5 0 7 5 4 10 -3 6 -8 10 -11 10 -2 0
-4 -4 -4 -10z"/>
<path d="M910 1285 c0 -5 5 -17 10 -25 5 -8 10 -10 10 -5 0 6 -5 17 -10 25 -5
8 -10 11 -10 5z"/>
<path d="M1090 960 c6 -11 13 -20 16 -20 2 0 0 9 -6 20 -6 11 -13 20 -16 20
-2 0 0 -9 6 -20z"/>
<path d="M1470 830 c0 -5 5 -10 11 -10 5 0 7 5 4 10 -3 6 -8 10 -11 10 -2 0
-4 -4 -4 -10z"/>
<path d="M1530 634 c0 -5 7 -18 15 -28 8 -11 15 -16 15 -10 0 5 -7 18 -15 28
-8 11 -15 16 -15 10z"/>
<path d="M1866 422 c-3 -5 1 -9 9 -9 8 0 12 4 9 9 -3 4 -7 8 -9 8 -2 0 -6 -4
-9 -8z"/>
<path d="M665 411 c-3 -5 -2 -12 3 -15 5 -3 9 1 9 9 0 17 -3 19 -12 6z"/>
<path d="M1950 366 c0 -2 7 -9 15 -16 13 -11 14 -10 9 4 -5 14 -24 23 -24 12z"/>
<path d="M1459 348 c15 -21 31 -23 31 -6 0 6 -3 8 -7 5 -3 -4 -13 -1 -22 6
-14 11 -14 10 -2 -5z"/>
<path d="M1699 348 c15 -21 31 -23 31 -6 0 6 -3 8 -7 5 -3 -4 -13 -1 -22 6
-14 11 -14 10 -2 -5z"/>
<path d="M625 340 c-3 -6 1 -7 9 -4 18 7 21 14 7 14 -6 0 -13 -4 -16 -10z"/>
<path d="M1535 340 c3 -5 8 -10 11 -10 2 0 4 5 4 10 0 6 -5 10 -11 10 -5 0 -7
-4 -4 -10z"/>
<path d="M1775 340 c3 -5 8 -10 11 -10 2 0 4 5 4 10 0 6 -5 10 -11 10 -5 0 -7
-4 -4 -10z"/>
<path d="M215 820 c3 -5 8 -10 11 -10 2 0 4 5 4 10 0 6 -5 10 -11 10 -5 0 -7
-4 -4 -10z"/>
<path d="M1693 985 c0 -8 4 -12 9 -9 5 3 6 10 3 15 -9 13 -12 11 -12 -6z"/>
<path d="M2261 991 c-8 -5 -9 -11 -3 -15 5 -3 12 1 16 9 6 17 6 18 -13 6z"/>
<path d="M2110 919 c0 -5 5 -7 10 -4 6 3 10 8 10 11 0 2 -4 4 -10 4 -5 0 -10
-5 -10 -11z"/>
<path d="M2096 822 c-2 -4 -1 -14 3 -21 6 -9 11 -10 15 -2 4 6 2 11 -4 11 -6
0 -8 5 -5 10 3 6 4 10 1 10 -3 0 -7 -4 -10 -8z"/>
<path d="M2234 822 c3 -5 0 -13 -6 -15 -8 -3 -6 -6 5 -6 19 -1 23 14 5 25 -6
4 -8 3 -4 -4z"/>
<path d="M2270 816 c0 -2 7 -9 15 -16 13 -11 14 -10 9 4 -5 14 -24 23 -24 12z"/>
<path d="M2135 800 c3 -5 8 -10 11 -10 2 0 4 5 4 10 0 6 -5 10 -11 10 -5 0 -7
-4 -4 -10z"/>
<path d="M2356 673 c-6 -14 -5 -15 5 -6 7 7 10 15 7 18 -3 3 -9 -2 -12 -12z"/>
<path d="M2040 676 c0 -2 7 -7 16 -10 8 -3 12 -2 9 4 -6 10 -25 14 -25 6z"/>
<path d="M2160 676 c0 -2 7 -7 16 -10 8 -3 12 -2 9 4 -6 10 -25 14 -25 6z"/>
</g>
</svg>
