<svg xmlns="http://www.w3.org/2000/svg" viewBox="0 0 265.5 106.5"><defs><style>.cls-1,.cls-10,.cls-2,.cls-5,.cls-6,.cls-7,.cls-8{fill:none;}.cls-1,.cls-10,.cls-2,.cls-3,.cls-6,.cls-7{stroke:#000;}.cls-1,.cls-10,.cls-2,.cls-3,.cls-5,.cls-6,.cls-7,.cls-8{stroke-miterlimit:10;}.cls-1,.cls-3,.cls-5{stroke-width:2px;}.cls-4{fill:#701111;}.cls-5{stroke:#fff;}.cls-6{stroke-width:0.75px;}.cls-7,.cls-8{stroke-width:3px;}.cls-8{stroke:#1f319b;}.cls-9{fill:#1f319b;}.cls-10{stroke-width:0.25px;}</style></defs><title>Ресурс 13</title><g id="Слой_2" data-name="Слой 2"><g id="Слой_1-2" data-name="Слой 1"><path class="cls-1" d="M261.82,67.53V86.32c0,3.77-2.4,6.83-5.35,6.83H194.9c-3,0-5.35-3.06-5.35-6.83v-53h66.92c3,0,5.35,3.06,5.35,6.83V55.57"/><rect class="cls-1" x="229.7" y="1" width="25.43" height="32.45"/><path class="cls-1" d="M198.62,19.79h29.74a0,0,0,0,1,0,0V33.45a0,0,0,0,1,0,0H189.55a0,0,0,0,1,0,0V28.86A9.07,9.07,0,0,1,198.62,19.79Z"/><path class="cls-1" d="M240.93,55.66h20.55a3,3,0,0,1,3,3v5.91a3,3,0,0,1-3,3H240.93a4.54,4.54,0,0,1-4.54-4.54V60.2a4.54,4.54,0,0,1,4.54-4.54Z"/><path class="cls-2" d="M237.21,17.2h6.58c1.93,0,3.83-2.08,3.83-4.73s-1.73-4.74-3.87-4.74h-4.18V26.67"/><path class="cls-2" d="M237.21,21.66h7.18"/><path class="cls-2" d="M125.3,64.18h5.41c1.58,0,3.14-1.89,3.14-4.3s-1.43-4.3-3.18-4.3h-3.43V72.79"/><path class="cls-2" d="M125.3,68.24h5.9"/><ellipse class="cls-3" cx="242.42" cy="61.32" rx="0.01" ry="0.32"/><ellipse class="cls-4" cx="40.31" cy="56.47" rx="31.45" ry="40.19"/><line class="cls-5" x1="17.77" y1="54.58" x2="61.07" y2="54.58"/><path class="cls-5" d="M61.56,68.81l-5.09,8.33.3-.44C52.6,82.76,46.51,87.06,40.09,87.06c-12.32,0-22.31-13.77-22.31-30.75s10-30.75,22.31-30.75c11.9,0,21.62,12.84,22.27,29q0,.86,0,1.73"/><polygon class="cls-6" points="153.41 79.48 106.57 79.48 106.57 48.74 113.26 48.74 153.41 48.74 153.41 72.65 153.41 79.48"/><polyline class="cls-6" points="111.25 48.74 111.25 44.47 117.94 44.47 158.09 44.47 158.09 68.38 158.09 75.22 153.41 75.22"/><path class="cls-2" d="M113.26,72.65"/><path class="cls-6" d="M160.1,41.91"/><path class="cls-6" d="M160.1,72.65"/><path class="cls-7" d="M87.84,104.25"/><path class="cls-7" d="M77.79,57.28"/><path class="cls-8" d="M10.75,89.63A58.66,58.66,0,0,1,1.5,57.28C1.5,29.92,18.58,7.74,39.65,7.74a31.3,31.3,0,0,1,18,5.82"/><path class="cls-8" d="M68.42,23.12a58.66,58.66,0,0,1,9.25,32.35C77.68,82.82,60.6,105,39.53,105a31.3,31.3,0,0,1-18-5.82"/><polyline class="cls-9" points="8.96 83.04 16.11 93.28 3.29 92.1"/><polyline class="cls-9" points="69.13 27.37 61.22 18.09 74.06 17.64"/><path class="cls-6" d="M154.08,72"/><path class="cls-6" d="M160,72"/><rect class="cls-10" x="108.57" y="51.3" width="42.83" height="25.62"/><polyline class="cls-10" points="113.26 48.74 113.26 47.03 156.09 47.03 156.09 72.65 153.41 72.65"/><path class="cls-10" d="M154.75,69.24"/><path class="cls-10" d="M146.72,52.16c0,2.83,1.8,5.12,4,5.12"/><path class="cls-10" d="M150.83,71.08c-2.13-.14-4,2.12-4.07,5"/><path class="cls-10" d="M113.26,76.07c-.17-3-2-5.31-4-5.12"/><path class="cls-10" d="M109.24,57.28a4.86,4.86,0,0,0,4-5.12"/></g></g></svg>