<svg xmlns="http://www.w3.org/2000/svg" viewBox="0 0 135.5 106.5"><defs><style>.cls-1{fill:none;stroke:#000;stroke-miterlimit:10;stroke-width:1.5px;}</style></defs><title>Ресурс 15</title><g id="Слой_2" data-name="Слой 2"><g id="Слой_1-2" data-name="Слой 1"><path class="cls-1" d="M9.68,76.87V8.63c0-4.35,3-7.87,6.7-7.87h100.5c3.7,0,6.7,3.53,6.7,7.88V45.38"/><line class="cls-1" x1="107.76" y1="90" x2="9.68" y2="90"/><path class="cls-1" d="M107.76,90H7.45c-3.7,0-6.7-3.53-6.7-7.87V79.5A2.45,2.45,0,0,1,3,76.88H108"/><path class="cls-1" d="M107.95,69H20.85a2.45,2.45,0,0,1-2.23-2.62V11.25a2.45,2.45,0,0,1,2.23-2.62h91.57a2.45,2.45,0,0,1,2.23,2.63V45.37"/><path class="cls-1" d="M130.28,105.75H112.42c-2.47,0-4.47-2.35-4.47-5.25V50.63c0-2.9,2-5.25,4.47-5.25h17.87c2.47,0,4.47,2.35,4.47,5.25V100.5C134.75,103.4,132.75,105.75,130.28,105.75Z"/><line class="cls-1" x1="107.95" y1="53.25" x2="134.75" y2="53.25"/><line class="cls-1" x1="107.95" y1="97.87" x2="134.75" y2="97.87"/></g></g></svg>