<svg xmlns="http://www.w3.org/2000/svg" viewBox="0 0 84.13 101.5"><defs><style>.cls-1{fill:none;stroke:#000;stroke-miterlimit:10;stroke-width:1.5px;}.cls-2{font-size:12.39px;}.cls-2,.cls-4{font-family:MyriadPro-Regular, Myriad Pro;}.cls-3{letter-spacing:-0.08em;}.cls-4{font-size:19.71px;}</style></defs><title>Ресурс 14</title><g id="Слой_2" data-name="Слой 2"><g id="Слой_1-2" data-name="Слой 1"><path class="cls-1" d="M50.67,84.67h7.43a4.32,4.32,0,0,0,4.32-4.08A4.23,4.23,0,0,0,58,76.51H53.32V92.83"/><path class="cls-1" d="M50.67,89.25h8.1"/><polygon class="cls-1" points="7.05 100.75 83.38 100.75 83.38 64.39 72.47 64.39 7.05 64.39 7.05 92.67 7.05 100.75"/><polyline class="cls-1" points="77.07 64.39 77.07 58 66.17 58 0.75 58 0.75 86.28 0.75 94.37 7.05 94.37"/><path class="cls-1" d="M72.47,92.67"/><rect class="cls-1" x="10.33" y="67.42" width="69.78" height="30.3" transform="translate(90.43 165.14) rotate(-180)"/><polyline class="cls-1" points="73.8 64.39 73.8 61.03 4.02 61.03 4.02 91.34 7.06 91.34"/><path class="cls-1" d="M18,68.43a6.31,6.31,0,0,1-6.54,6.06"/><path class="cls-1" d="M11.26,90.81a6.34,6.34,0,0,1,6.63,6"/><path class="cls-1" d="M72.47,96.71A6.36,6.36,0,0,1,79,90.65"/><path class="cls-1" d="M79,74.49c-4.07-.57-7-3.28-6.54-6.06"/><rect class="cls-1" x="1.6" y="0.75" width="67.6" height="50.51" rx="9.44" ry="9.44"/><rect class="cls-1" x="10.33" y="6.81" width="50.15" height="14.14" rx="5.07" ry="5.07"/><rect class="cls-1" x="10.33" y="24.99" width="28.35" height="20.2"/><rect class="cls-1" x="43.03" y="33.07" width="17.44" height="6.06"/><line class="cls-1" x1="19.05" y1="24.99" x2="19.05" y2="45.19"/><line class="cls-1" x1="29.95" y1="24.99" x2="29.95" y2="45.19"/><line class="cls-1" x1="10.37" y1="33.07" x2="38.71" y2="33.07"/><line class="cls-1" x1="10.33" y1="39.13" x2="38.67" y2="39.13"/><text class="cls-2" transform="translate(20.14 18.19) scale(1.28 1)"><tspan class="cls-3">A</tspan><tspan x="6.63" y="0">TM</tspan></text><text class="cls-4" transform="translate(20.14 90.99) scale(1.42 1)">10</text></g></g></svg>