<svg xmlns="http://www.w3.org/2000/svg" viewBox="0 0 222 106.59"><defs><style>.cls-1{fill:#fff;}.cls-2,.cls-4{fill:none;}.cls-2,.cls-4,.cls-5{stroke:#000;stroke-miterlimit:10;}.cls-2,.cls-5{stroke-width:2px;}.cls-3{font-size:12.38px;font-family:MyriadPro-Regular, Myriad Pro;}</style></defs><title>Ресурс 12</title><g id="Слой_2" data-name="Слой 2"><g id="Слой_1-2" data-name="Слой 1"><path class="cls-1" d="M111,85H47.71c-1.7,0-3-1-2.75-2.09l12-52.9c.2-.89,1.37-1.56,2.75-1.56H123c1.7,0,3,1,2.75,2.09l-12,52.9C113.58,84.31,112.41,85,111,85Z"/><path class="cls-2" d="M111,85H47.71c-1.7,0-3-1-2.75-2.09l12-52.9c.2-.89,1.37-1.56,2.75-1.56H123c1.7,0,3,1,2.75,2.09l-12,52.9C113.58,84.31,112.41,85,111,85Z"/><line class="cls-2" y1="36.58" x2="39.41" y2="36.58"/><line class="cls-2" y1="69.07" x2="39.41" y2="69.07"/><line class="cls-2" x1="19.71" y1="53.17" x2="39.17" y2="53.17"/><line class="cls-2" x1="47.22" y1="71.6" x2="114.37" y2="28.42"/><line class="cls-2" x1="53.79" y1="84.97" x2="123.22" y2="41.68"/><text class="cls-3" transform="matrix(1.1, -0.7, 0.33, 0.95, 71.29, 68.54)">POST</text><path class="cls-2" d="M219.07,64.23V79.44c0,3.05-1.73,5.53-3.87,5.53H170.71c-2.14,0-3.87-2.48-3.87-5.53v-41c0-1,1.24-1.83,2.78-1.83H215.2c2.14,0,3.87,2.48,3.87,5.53V54.56"/><rect class="cls-2" x="195.85" y="10.31" width="18.38" height="26.27" rx="2.25" ry="2.25"/><path class="cls-2" d="M175.72,25.52h17a2.18,2.18,0,0,1,2.18,2.18v6.71a2.18,2.18,0,0,1-2.18,2.18H169a2.18,2.18,0,0,1-2.18-2.18v0a8.88,8.88,0,0,1,8.88-8.88Z"/><path class="cls-2" d="M205.53,54.56h11.61A3.86,3.86,0,0,1,221,58.42v2a3.86,3.86,0,0,1-3.86,3.86H205.53a4.84,4.84,0,0,1-4.84-4.84v0a4.84,4.84,0,0,1,4.84-4.84Z"/><line class="cls-2" x1="195.85" y1="18.61" x2="202.51" y2="10.14"/><line class="cls-2" x1="207.63" y1="9.84" x2="214.01" y2="18.97"/><path class="cls-4" d="M201.28,24.81H206c1.39,0,2.76-1.69,2.76-3.83s-1.25-3.83-2.8-3.83h-.24c-1.53,0-2.78.82-2.78,1.83V32.47"/><path class="cls-4" d="M201.28,28.42h5.19"/><ellipse class="cls-5" cx="205.05" cy="59.14" ry="0.26"/><path d="M160.08,15.77l8.13,7.78h0L166.35,12h0l-6.26,3.72A0,0,0,0,0,160.08,15.77Z"/><path class="cls-2" d="M119.64,11.33C135.87-4.42,156.26-1.88,165.23,17"/><path class="cls-2" d="M120.86,95.25c16.23,15.75,36.62,13.21,45.59-5.68"/><rect x="168.22" y="5.91" height="2.94"/><path d="M123.7,93.27l-9.5-6.43a0,0,0,0,0,0,0l4,11h0l5.45-4.62A0,0,0,0,0,123.7,93.27Z"/></g></g></svg>