<svg xmlns="http://www.w3.org/2000/svg" width="15.633" height="15.634" viewBox="0 0 15.633 15.634">
  <defs>

  </defs>
  <path id="Path_26" data-name="Path 26" class="cls-1" d="M13.9,0H1.737A1.742,1.742,0,0,0,0,1.737V13.9a1.742,1.742,0,0,0,1.737,1.737H13.9A1.742,1.742,0,0,0,15.634,13.9V1.737A1.742,1.742,0,0,0,13.9,0Zm-.869,13.028H7.817V7.991a3.248,3.248,0,0,1-2.171.869A3.263,3.263,0,0,1,2.432,5.645,3.263,3.263,0,0,1,5.645,2.432,3.263,3.263,0,0,1,8.859,5.645a3.248,3.248,0,0,1-.869,2.171h5.037Z"/>
</svg>
