<svg xmlns="http://www.w3.org/2000/svg" width="15.084" height="16.761" viewBox="0 0 15.084 16.761">
  <defs>
  </defs>
  <path id="Path_22" data-name="Path 22" class="cls-1" d="M35.557,9.219H28.014V7.542h7.542Zm2.514-3.352H28.014V4.19H38.071ZM25.5,16.761,26.757,15.5l1.257,1.257L29.271,15.5l1.257,1.257L31.785,15.5l1.257,1.257L34.3,15.5l1.257,1.257L36.814,15.5l1.257,1.257L39.328,15.5l1.257,1.257V0L39.328,1.257,38.071,0,36.814,1.257,35.557,0,34.3,1.257,33.042,0,31.785,1.257,30.528,0,29.271,1.257,28.014,0,26.757,1.257,25.5,0Z" transform="translate(-25.5)"/>
</svg>
