<svg xmlns="http://www.w3.org/2000/svg" width="19.859" height="17.291" viewBox="0 0 19.859 17.291">
  <defs>
   
  </defs>
  <path id="Telega" class="cls-1" d="M538.481,113.66l4.576,1.708,1.771,5.7a.538.538,0,0,0,.855.257l2.551-2.079a.76.76,0,0,1,.927-.026l4.6,3.34a.539.539,0,0,0,.845-.326l3.37-16.211a.54.54,0,0,0-.722-.613l-18.78,7.245A.54.54,0,0,0,538.481,113.66Zm6.062.8,8.943-5.508a.156.156,0,0,1,.188.247l-7.381,6.861a1.53,1.53,0,0,0-.474.915l-.251,1.863a.231.231,0,0,1-.452.033l-.967-3.4A.9.9,0,0,1,544.543,114.459Z" transform="translate(-538.131 -105.369)"/>
</svg>
