<svg xmlns="http://www.w3.org/2000/svg" width="18.039" height="14.431" viewBox="0 0 18.039 14.431">
  <defs>
 
  </defs>
  <g id="Group_12" data-name="Group 12" transform="translate(-25 -209)">
    <path id="Rectangle_5" data-name="Rectangle 5" class="cls-1" d="M2,0H16.039a2,2,0,0,1,2,2V3.608a0,0,0,0,1,0,0H0a0,0,0,0,1,0,0V2A2,2,0,0,1,2,0Z" transform="translate(25 209)"/>
    <path id="Path_29" data-name="Path 29" class="cls-1" d="M0-.841H18.039V5.216a2,2,0,0,1-2,2H2a2,2,0,0,1-2-2Z" transform="translate(25 216.216)"/>
  </g>
</svg>
