<svg xmlns="http://www.w3.org/2000/svg" xmlns:xlink="http://www.w3.org/1999/xlink" width="18.676" height="12.451" viewBox="0 0 18.676 12.451">
  <defs>
    <clipPath id="clip-path">
      <rect width="18.676" height="12.451" fill="none"/>
    </clipPath>
  </defs>
  <g id="En" clip-path="url(#clip-path)">
    <path id="Path_418" data-name="Path 418" d="M3904.3-906.383h18.675v12.45H3904.3v-12.45Z" transform="translate(-3904.298 906.383)" fill="#fff" fill-rule="evenodd"/>
    <path id="Path_419" data-name="Path 419" d="M3913.684-899.685v-6.7H3904.3v6.7Z" transform="translate(-3904.298 906.383)" fill="#2e3188" fill-rule="evenodd"/>
    <path id="Path_420" data-name="Path 420" d="M3904.96-906.131l-.078.264h-.281l.234.173-.093.249.218-.157.234.157-.094-.249.233-.173h-.28l-.093-.264Zm1.574,0-.094.264h-.265l.218.173-.078.249.218-.157.219.157-.077-.249.218-.173h-.281l-.078-.264Zm1.559,0-.078.264h-.281l.235.173-.094.249.219-.157.234.157-.094-.249.219-.173h-.265l-.094-.264Zm1.575,0-.094.264h-.265l.219.173-.094.249.234-.157.219.157-.094-.249.235-.173h-.281l-.078-.264Zm1.559,0-.078.264h-.281l.218.173-.077.249.218-.157.219.157-.078-.249.218-.173h-.265l-.094-.264Zm1.558,0-.077.264h-.28l.233.173-.094.249.218-.157.235.157-.094-.249.234-.173h-.281l-.094-.264Zm-7.825,1.34-.078.249h-.281l.234.171-.093.249.218-.155.234.155-.094-.249.233-.171h-.28l-.093-.249Zm1.574,0-.094.249h-.265l.218.171-.078.249.218-.155.219.155-.077-.249.218-.171h-.281l-.078-.249Zm1.559,0-.078.249h-.281l.235.171-.094.249.219-.155.234.155-.094-.249.219-.171h-.265l-.094-.249Zm1.575,0-.094.249h-.265l.219.171-.094.249.234-.155.219.155-.094-.249.235-.171h-.281l-.078-.249Zm1.559,0-.078.249h-.281l.218.171-.077.249.218-.155.219.155-.078-.249.218-.171h-.265l-.094-.249Zm1.558,0-.077.249h-.28l.233.171-.094.249.218-.155.235.155-.094-.249.234-.171h-.281l-.094-.249Zm-7.825,1.324-.078.25h-.281l.234.171-.093.265.218-.171.234.171-.094-.265.233-.171h-.28l-.093-.25Zm1.574,0-.094.25h-.265l.218.171-.078.265.218-.171.219.171-.077-.265.218-.171h-.281l-.078-.25Zm1.559,0-.078.25h-.281l.235.171-.094.265.219-.171.234.171-.094-.265.219-.171h-.265l-.094-.25Zm1.575,0-.094.25h-.265l.219.171-.094.265.234-.171.219.171-.094-.265.235-.171h-.281l-.078-.25Zm1.559,0-.078.25h-.281l.218.171-.077.265.218-.171.219.171-.078-.265.218-.171h-.265l-.094-.25Zm1.558,0-.077.25h-.28l.233.171-.094.265.218-.171.235.171-.094-.265.234-.171h-.281l-.094-.25Zm-7.825,1.326-.078.249h-.281l.234.171-.093.265.218-.171.234.171-.094-.265.233-.155h-.28l-.093-.265Zm1.574,0-.094.249h-.265l.218.171-.078.265.218-.171.219.171-.077-.265.218-.155h-.281l-.078-.265Zm1.559,0-.078.249h-.281l.235.171-.094.265.219-.171.234.171-.094-.265.219-.155h-.265l-.094-.265Zm1.575,0-.094.249h-.265l.219.171-.094.265.234-.171.219.171-.094-.265.235-.155h-.281l-.078-.265Zm1.559,0-.078.249h-.281l.218.171-.077.265.218-.171.219.171-.078-.265.218-.155h-.265l-.094-.265Zm1.558,0-.077.249h-.28l.233.171-.094.265.218-.171.235.171-.094-.265.234-.155h-.281l-.094-.265Zm-7.825,1.326-.078.265h-.281l.234.155-.093.265.218-.171.234.171-.094-.265.233-.155h-.28l-.093-.265Zm1.574,0-.094.265h-.265l.218.155-.078.265.218-.171.219.171-.077-.265.218-.155h-.281l-.078-.265Zm1.559,0-.078.265h-.281l.235.155-.094.265.219-.171.234.171-.094-.265.219-.155h-.265l-.094-.265Zm1.575,0-.094.265h-.265l.219.155-.094.265.234-.171.219.171-.094-.265.235-.155h-.281l-.078-.265Zm1.559,0-.078.265h-.281l.218.155-.077.265.218-.171.219.171-.078-.265.218-.155h-.265l-.094-.265Zm1.558,0-.077.265h-.28l.233.155-.094.265.218-.171.235.171-.094-.265.234-.155h-.281l-.094-.265Zm-7.03-.655-.094.249h-.266l.218.171-.094.249.235-.155.218.155-.094-.249.233-.171h-.28l-.077-.249Zm1.558,0-.078.249h-.281l.219.171-.078.249.218-.155.219.155-.078-.249.219-.171h-.265l-.094-.249Zm1.559,0-.078.249h-.281l.234.171-.094.249.218-.155.235.155-.094-.249.234-.171h-.281l-.094-.249Zm1.575,0-.094.249h-.265l.218.171-.078.249.219-.155.218.155-.078-.249.219-.171h-.281l-.078-.249Zm1.559,0-.078.249h-.28l.233.171-.094.249.219-.155.234.155-.094-.249.219-.171h-.265l-.094-.249Zm-6.251-1.342-.094.265h-.266l.218.157-.094.265.235-.157.218.157-.094-.265.233-.157h-.28l-.077-.265Zm1.558,0-.078.265h-.281l.219.157-.078.265.218-.157.219.157-.078-.265.219-.157h-.265l-.094-.265Zm1.559,0-.078.265h-.281l.234.157-.094.265.218-.157.235.157-.094-.265.234-.157h-.281l-.094-.265Zm1.575,0-.094.265h-.265l.218.157-.078.265.219-.157.218.157-.078-.265.219-.157h-.281l-.078-.265Zm1.559,0-.078.265h-.28l.233.157-.094.265.219-.157.234.157-.094-.265.219-.157h-.265l-.094-.265Zm-6.251-1.324-.094.265h-.266l.218.155-.094.265.235-.155.218.155-.094-.265.233-.155h-.28l-.077-.265Zm1.558,0-.078.265h-.281l.219.155-.078.265.218-.155.219.155-.078-.265.219-.155h-.265l-.094-.265Zm1.559,0-.078.265h-.281l.234.155-.094.265.218-.155.235.155-.094-.265.234-.155h-.281l-.094-.265Zm1.575,0-.094.265h-.265l.218.155-.078.265.219-.155.218.155-.078-.265.219-.155h-.281l-.078-.265Zm1.559,0-.078.265h-.28l.233.155-.094.265.219-.155.234.155-.094-.265.219-.155h-.265l-.094-.265Zm-6.251-1.326-.094.265h-.266l.218.157-.094.264.235-.171.218.171-.094-.264.233-.157h-.28l-.077-.265Zm1.558,0-.078.265h-.281l.219.157-.078.264.218-.171.219.171-.078-.264.219-.157h-.265l-.094-.265Zm1.559,0-.078.265h-.281l.234.157-.094.264.218-.171.235.171-.094-.264.234-.157h-.281l-.094-.265Zm1.575,0-.094.265h-.265l.218.157-.078.264.219-.171.218.171-.078-.264.219-.157h-.281l-.078-.265Zm1.559,0-.078.265h-.28l.233.157-.094.264.219-.171.234.171-.094-.264.219-.157h-.265l-.094-.265Z" transform="translate(-3904.195 906.468)" fill="#fff" fill-rule="evenodd"/>
    <path id="Path_421" data-name="Path 421" d="M3922.974-893.932H3904.3v-.967h18.676v.967Zm0-12.451v.96h-9.291v-.96Zm0,1.911v.952h-9.291v-.952Zm0,1.918v.952h-9.291v-.952Zm0,1.919v.951h-9.291v-.951Zm0,1.918v.951H3904.3v-.951Zm0,1.9v.967H3904.3v-.967Z" transform="translate(-3904.298 906.383)" fill="#e8313a" fill-rule="evenodd"/>
  </g>
</svg>
