<?xml version="1.0" standalone="no"?>
<!DOCTYPE svg PUBLIC "-//W3C//DTD SVG 20010904//EN"
 "http://www.w3.org/TR/2001/REC-SVG-20010904/DTD/svg10.dtd">
<svg version="1.0" xmlns="http://www.w3.org/2000/svg"
 width="512.000000pt" height="512.000000pt" viewBox="0 0 512.000000 512.000000"
 preserveAspectRatio="xMidYMid meet">
<metadata>
Created by potrace 1.11, written by Peter Selinger 2001-2013
</metadata>
<g transform="translate(0.000000,512.000000) scale(0.100000,-0.100000)"
fill="#000000" stroke="none">
<path d="M2356 4578 c-448 -52 -874 -280 -1182 -633 -215 -246 -367 -539 -449
-865 -27 -105 -32 -132 -41 -205 -3 -27 -8 -61 -11 -75 -11 -56 -10 -410 2
-495 20 -147 25 -177 41 -245 98 -411 322 -793 626 -1065 142 -128 254 -202
433 -290 146 -71 263 -114 390 -141 147 -32 258 -42 430 -39 180 4 185 4 339
36 553 115 1047 512 1310 1054 92 188 144 352 181 560 8 44 17 96 20 115 10
54 14 407 5 480 -23 191 -54 332 -105 480 -64 185 -128 316 -232 475 -396 604
-1071 932 -1757 853z m44 -450 c0 -83 -3 -149 -6 -146 -7 8 -161 -33 -234 -62
-291 -113 -488 -321 -544 -575 -21 -96 -15 -251 13 -328 48 -137 156 -270 297
-367 92 -63 258 -147 381 -192 l93 -33 -3 -470 -2 -470 -30 1 c-30 0 -156 13
-185 19 -149 28 -317 80 -439 136 -47 22 -88 36 -91 32 -4 -5 -22 -48 -40 -98
-18 -49 -48 -130 -68 -180 l-35 -89 23 -16 c64 -42 332 -126 469 -146 20 -3
47 -7 60 -9 67 -11 210 -23 289 -24 l52 -1 0 -141 0 -141 -46 7 c-51 7 -57 8
-129 24 -565 126 -1050 621 -1204 1228 -20 78 -22 89 -36 173 -4 25 -9 54 -12
65 -9 40 -10 362 -2 435 41 347 185 693 393 944 242 293 581 498 930 561 117
22 106 36 106 -137z m475 127 c112 -24 230 -66 350 -126 404 -200 714 -576
854 -1035 60 -198 80 -349 76 -574 -4 -207 -28 -359 -86 -540 -26 -79 -105
-262 -134 -310 -12 -19 -34 -56 -49 -82 -23 -42 -88 -131 -150 -207 -12 -14
-63 -67 -114 -118 -236 -231 -534 -380 -860 -428 l-43 -6 3 152 3 153 35 3
c19 3 71 13 115 24 398 99 650 321 716 630 13 62 17 213 6 279 -22 136 -85
257 -187 361 -127 128 -294 225 -555 320 l-130 48 0 418 0 418 45 -3 c92 -5
175 -17 248 -36 12 -3 30 -8 41 -10 61 -14 144 -44 239 -87 24 -11 48 -17 52
-12 8 9 140 339 140 351 0 10 -88 48 -190 82 -89 30 -237 64 -330 76 -30 3
-63 8 -74 10 -10 2 -54 4 -97 6 l-79 2 0 133 0 134 48 -7 c26 -3 74 -12 107
-19z m-479 -1322 c-7 -7 -114 66 -151 103 -44 43 -71 96 -82 160 -27 147 46
284 193 363 l39 21 3 -321 c1 -177 0 -324 -2 -326z m415 -675 c84 -51 161
-123 191 -181 30 -57 46 -158 36 -229 -19 -142 -112 -246 -275 -311 l-43 -17
0 390 c0 250 4 390 10 390 5 0 42 -19 81 -42z"/>
</g>
</svg>
