<svg xmlns="http://www.w3.org/2000/svg" width="195" height="128" viewBox="0 0 195 128">
  <metadata><?xpacket begin="﻿" id="W5M0MpCehiHzreSzNTczkc9d"?>
<x:xmpmeta xmlns:x="adobe:ns:meta/" x:xmptk="Adobe XMP Core 5.6-c138 79.159824, 2016/09/14-01:09:01        ">
   <rdf:RDF xmlns:rdf="http://www.w3.org/1999/02/22-rdf-syntax-ns#">
      <rdf:Description rdf:about=""/>
   </rdf:RDF>
</x:xmpmeta>
                                                                                                    
                                                                                                    
                                                                                                    
                                                                                                    
                                                                                                    
                                                                                                    
                                                                                                    
                                                                                                    
                                                                                                    
                                                                                                    
                                                                                                    
                                                                                                    
                                                                                                    
                                                                                                    
                                                                                                    
                                                                                                    
                                                                                                    
                                                                                                    
                                                                                                    
                                                                                                    
                           
<?xpacket end="w"?></metadata>
<defs>
    <style>
      .cls-1 {
        fill: #059feb;
        fill-rule: evenodd;
      }
    </style>
  </defs>
  <path id="Forma_1" data-name="Forma 1" class="cls-1" d="M187.1,2H11.9A9.923,9.923,0,0,0,2,11.927V120.071A9.923,9.923,0,0,0,11.9,130H187.1a9.923,9.923,0,0,0,9.9-9.928V11.927A9.923,9.923,0,0,0,187.1,2ZM11.9,8.336H187.1a3.589,3.589,0,0,1,3.579,3.591V32.416H187.1a0.212,0.212,0,0,1-.211-0.211V25.445a6.546,6.546,0,0,0-6.528-6.548H18.636a6.545,6.545,0,0,0-6.528,6.548V32.2a0.212,0.212,0,0,1-.21.211H8.317V11.927A3.589,3.589,0,0,1,11.9,8.336ZM187.1,123.663H11.9a3.59,3.59,0,0,1-3.58-3.592V38.752H11.9A6.545,6.545,0,0,0,18.425,32.2V25.445a0.211,0.211,0,0,1,.211-0.211H180.364a0.211,0.211,0,0,1,.21.211V32.2a6.546,6.546,0,0,0,6.529,6.548h3.579v81.319A3.59,3.59,0,0,1,187.1,123.663Zm-14.377-77.73H26.274a3.156,3.156,0,0,0-2.563,1.316,43.633,43.633,0,0,0,0,51.018,3.157,3.157,0,0,0,2.563,1.315H39.991l0.015,0,0.023,0h132.7a3.158,3.158,0,0,0,2.563-1.315,43.631,43.631,0,0,0,0-51.018A3.155,3.155,0,0,0,172.726,45.933ZM143.091,66.558a6.967,6.967,0,0,1,0,12.4v-12.4Zm-6.318,26.689H62.227V52.27h74.546V93.247Zm-95.6,0a27.276,27.276,0,0,1,0-40.976h6.549a23.463,23.463,0,0,0,0,40.976H41.173ZM55.909,78.959a6.967,6.967,0,0,1,0-12.4v12.4Zm0-19.123a13.315,13.315,0,0,0,0,25.846v3.888a17.115,17.115,0,0,1,0-33.619v3.886ZM21.795,72.758A37.122,37.122,0,0,1,27.932,52.27h4.6a33.688,33.688,0,0,0,0,40.976h-4.6A37.118,37.118,0,0,1,21.795,72.758ZM171.068,93.247H143.091V85.681a13.315,13.315,0,0,0,0-25.845V52.27h27.977A37.268,37.268,0,0,1,171.068,93.247Z" transform="translate(-2 -2)"/>
</svg>
