<svg xmlns="http://www.w3.org/2000/svg" width="46.742" height="48.283" viewBox="0 0 46.742 48.283">
  <defs>
   
  </defs>
  <g id="Group_2" data-name="Group 2" transform="translate(-3785.457 -3465.656)">
    <path id="Path_6" data-name="Path 6" class="cls-1" d="M3899.578,3465.755a5.284,5.284,0,0,0-5.275,2.034,4.231,4.231,0,0,0-.863,2.744.16.16,0,0,0,.265.112,6.855,6.855,0,0,1,5.752-1.662,7.31,7.31,0,0,0-5.2,1.817,1.526,1.526,0,0,0-.326,1.714,11.138,11.138,0,0,0,2.653,3.489.16.16,0,0,0,.232-.024c4.2-5.425,10.187-3.545,12.367-7.874C3906.113,3468.794,3902.719,3466.359,3899.578,3465.755Zm0,0a5.284,5.284,0,0,0-5.275,2.034,4.231,4.231,0,0,0-.863,2.744.16.16,0,0,0,.265.112,6.855,6.855,0,0,1,5.752-1.662,7.31,7.31,0,0,0-5.2,1.817,1.526,1.526,0,0,0-.326,1.714,11.138,11.138,0,0,0,2.653,3.489.16.16,0,0,0,.232-.024c4.2-5.425,10.187-3.545,12.367-7.874C3906.113,3468.794,3902.719,3466.359,3899.578,3465.755Zm-1.448,23.958s-8.356-6.124-8.4-11.247a.054.054,0,0,0-.105-.02c-.514,1.41-2.36,7.558,3.181,10.857a6.622,6.622,0,0,0,3.136,1.023A3.1,3.1,0,0,0,3898.13,3489.713Zm-5.354-19.094c-.087,4.966,9.017,7.6,6.374,17.681,0,0-13.946-6.144-6.5-17.721A.069.069,0,0,1,3892.776,3470.619Z" transform="translate(-91.006 0)"/>
    <path id="Path_7" data-name="Path 7" class="cls-1" d="M3792.573,3521.287a5.285,5.285,0,0,0-.642,5.617,4.231,4.231,0,0,0,2.031,2.036.16.16,0,0,0,.223-.182,6.854,6.854,0,0,1,1.193-5.868,7.306,7.306,0,0,0-.8,5.447,1.524,1.524,0,0,0,1.368,1.084,11.1,11.1,0,0,0,4.321-.735.159.159,0,0,0,.086-.216c-2.858-6.24,1.58-10.668-1.248-14.609C3798.3,3516.905,3794.564,3518.783,3792.573,3521.287Zm0,0a5.285,5.285,0,0,0-.642,5.617,4.231,4.231,0,0,0,2.031,2.036.16.16,0,0,0,.223-.182,6.854,6.854,0,0,1,1.193-5.868,7.306,7.306,0,0,0-.8,5.447,1.524,1.524,0,0,0,1.368,1.084,11.1,11.1,0,0,0,4.321-.735.159.159,0,0,0,.086-.216c-2.858-6.24,1.58-10.668-1.248-14.609C3798.3,3516.905,3794.564,3518.783,3792.573,3521.287Zm20.56,12.388s-9.3,4.566-13.856,2.225a.055.055,0,0,0-.066.085c1.009,1.109,5.6,5.594,11.094,2.214a6.64,6.64,0,0,0,2.361-2.305A3.1,3.1,0,0,0,3813.132,3533.675Zm-19.4-4.107c4.36,2.379,10.91-4.469,18.622,2.547,0,0-11.908,9.511-18.715-2.453A.069.069,0,0,1,3793.731,3529.568Z" transform="translate(-5.228 -42.401)"/>
    <path id="Path_8" data-name="Path 8" class="cls-1" d="M3788.552,3689.99a5.287,5.287,0,0,0,4.519,3.4,4.23,4.23,0,0,0,2.784-.722.159.159,0,0,0-.044-.283,6.851,6.851,0,0,1-4.456-4,7.3,7.3,0,0,0,4.293,3.447,1.526,1.526,0,0,0,1.627-.631,11.1,11.1,0,0,0,1.554-4.1.16.16,0,0,0-.144-.184c-6.828-.694-8.4-6.764-13.228-6.321C3787.671,3682.836,3787.4,3687,3788.552,3689.99Zm0,0a5.287,5.287,0,0,0,4.519,3.4,4.23,4.23,0,0,0,2.784-.722.159.159,0,0,0-.044-.283,6.851,6.851,0,0,1-4.456-4,7.3,7.3,0,0,0,4.293,3.447,1.526,1.526,0,0,0,1.627-.631,11.1,11.1,0,0,0,1.554-4.1.16.16,0,0,0-.144-.184c-6.828-.694-8.4-6.764-13.228-6.321C3787.671,3682.836,3787.4,3687,3788.552,3689.99Zm21.091-11.459s-.77,10.331-5.095,13.076a.055.055,0,0,0,.04.1c1.467-.31,7.659-2,7.525-8.448a6.612,6.612,0,0,0-.794-3.2A3.087,3.087,0,0,0,3809.643,3678.532Zm-13.363,14.652c4.259-2.556,1.669-11.671,11.624-14.769,0,0,2.174,15.084-11.59,14.9A.069.069,0,0,1,3796.28,3693.183Z" transform="translate(0 -187.141)"/>
    <path id="Path_9" data-name="Path 9" class="cls-1" d="M3925.737,3685.348a5.287,5.287,0,0,0,5.1-2.43,4.234,4.234,0,0,0,.651-2.8.16.16,0,0,0-.271-.092,6.858,6.858,0,0,1-5.61,2.095,7.313,7.313,0,0,0,5.044-2.207,1.525,1.525,0,0,0,.194-1.734,11.091,11.091,0,0,0-2.911-3.276.159.159,0,0,0-.229.042c-3.78,5.728-9.887,4.308-11.731,8.792C3918.99,3682.814,3922.559,3684.984,3925.737,3685.348Zm0,0a5.287,5.287,0,0,0,5.1-2.43,4.234,4.234,0,0,0,.651-2.8.16.16,0,0,0-.271-.092,6.858,6.858,0,0,1-5.61,2.095,7.313,7.313,0,0,0,5.044-2.207,1.525,1.525,0,0,0,.194-1.734,11.091,11.091,0,0,0-2.911-3.276.159.159,0,0,0-.229.042c-3.78,5.728-9.887,4.308-11.731,8.792C3918.99,3682.814,3922.559,3684.984,3925.737,3685.348Zm-.378-24s8.8,5.471,9.225,10.575a.055.055,0,0,0,.107.011c.405-1.443,1.777-7.714-4-10.584a6.631,6.631,0,0,0-3.205-.781A3.1,3.1,0,0,0,3925.359,3661.348Zm6.789,18.632c-.29-4.958-9.568-6.888-7.7-17.146,0,0,14.373,5.065,7.829,17.175A.069.069,0,0,1,3932.148,3679.98Z" transform="translate(-114.806 -171.444)"/>
    <path id="Path_10" data-name="Path 10" class="cls-1" d="M4007.581,3625.954a5.288,5.288,0,0,0,.779-5.6,4.233,4.233,0,0,0-1.98-2.085.16.16,0,0,0-.227.176,6.857,6.857,0,0,1-1.336,5.837,7.309,7.309,0,0,0,.932-5.426,1.525,1.525,0,0,0-1.342-1.116,11.116,11.116,0,0,0-4.337.628.159.159,0,0,0-.091.214c2.705,6.308-1.841,10.627.888,14.634C4001.754,3630.195,4005.529,3628.408,4007.581,3625.954Zm0,0a5.288,5.288,0,0,0,.779-5.6,4.233,4.233,0,0,0-1.98-2.085.16.16,0,0,0-.227.176,6.857,6.857,0,0,1-1.336,5.837,7.309,7.309,0,0,0,.932-5.426,1.525,1.525,0,0,0-1.342-1.116,11.116,11.116,0,0,0-4.337.628.159.159,0,0,0-.091.214c2.705,6.308-1.841,10.627.888,14.634C4001.754,3630.195,4005.529,3628.408,4007.581,3625.954Zm-20.25-12.887s9.408-4.337,13.906-1.887a.055.055,0,0,0,.068-.083c-.982-1.133-5.464-5.728-11.038-2.484a6.625,6.625,0,0,0-2.415,2.248A3.089,3.089,0,0,0,3987.331,3613.067Zm19.295,4.58c-4.3-2.485-11.016,4.2-18.554-3,0,0,12.137-9.216,18.649,2.91A.069.069,0,0,1,4006.626,3617.647Z" transform="translate(-177.519 -124.742)"/>
    <path id="Path_11" data-name="Path 11" class="cls-1" d="M3975.117,3529.836a5.283,5.283,0,0,0-4.6-3.286,4.231,4.231,0,0,0-2.766.789.16.16,0,0,0,.051.283,6.849,6.849,0,0,1,4.553,3.89,7.305,7.305,0,0,0-4.376-3.341,1.523,1.523,0,0,0-1.61.671,11.106,11.106,0,0,0-1.453,4.135.159.159,0,0,0,.147.181c6.843.526,8.563,6.557,13.379,6C3976.174,3536.966,3976.341,3532.793,3975.117,3529.836Zm0,0a5.283,5.283,0,0,0-4.6-3.286,4.231,4.231,0,0,0-2.766.789.16.16,0,0,0,.051.283,6.849,6.849,0,0,1,4.553,3.89,7.305,7.305,0,0,0-4.376-3.341,1.523,1.523,0,0,0-1.61.671,11.106,11.106,0,0,0-1.453,4.135.159.159,0,0,0,.147.181c6.843.526,8.563,6.557,13.379,6C3976.174,3536.966,3976.341,3532.793,3975.117,3529.836Zm-20.8,11.971s.517-10.347,4.774-13.2a.055.055,0,0,0-.042-.1c-1.459.345-7.609,2.186-7.318,8.629a6.63,6.63,0,0,0,.872,3.182A3.093,3.093,0,0,0,3954.313,3541.807Zm13-14.974c-4.2,2.659-1.384,11.708-11.26,15.049,0,0-2.542-15.026,11.222-15.177A.069.069,0,0,1,3967.314,3526.833Z" transform="translate(-146.242 -53.557)"/>
  </g>
</svg>
