<svg xmlns="http://www.w3.org/2000/svg" width="100.803" height="99" viewBox="0 0 100.803 99">
  <defs>
    <style>
      .cls-1 {
        fill: #f6f8ff;
      }
    </style>
  </defs>
  <path id="Intersection_8" data-name="Intersection 8" class="cls-1" d="M9167.434,296.965l-4.069-2.35-1.356,2.35h-5.68l-23.75-88.634,9.067,5.235,5.235-9.067,9.068,5.235,5.235-9.067,9.067,5.235,4.582-7.937h2.611l7.109,4.1,2.369-4.1h11.463l.471.272.157-.272h22.765l11.6,43.3v36.785l-3.739,6.476-9.067-5.237-5.234,9.069-9.069-5.235-5.233,9.067-9.068-5.235-5.235,9.067-9.067-5.235-3.568,6.182Zm-9.055-49.558,2.555,9.535,42.908-11.5-2.555-9.535Zm-5.109-19.071,2.555,9.535,57.211-15.33-2.555-9.534Z" transform="translate(-9132.578 -197.965)"/>
</svg>
