<svg xmlns="http://www.w3.org/2000/svg" width="27.252" height="15.424" viewBox="0 0 27.252 15.424">
  <defs>
   
  </defs>
  <path id="VK" class="cls-1" d="M1006.169,724.263a12.523,12.523,0,0,0,3.823,3.578,10.177,10.177,0,0,0,5.681,1.223c.938-.045,1.22-.29,1.264-1.224a4.161,4.161,0,0,1,.418-1.855.83.83,0,0,1,1.322-.32,3.764,3.764,0,0,1,.713.637c.529.577,1.04,1.174,1.588,1.732a3.072,3.072,0,0,0,2.529,1.03l3.969,0c.639-.043.971-.826.6-1.542a7.735,7.735,0,0,0-.955-1.374,36.484,36.484,0,0,0-2.67-2.686c-.815-.8-.866-1.257-.212-2.174.716-1,1.484-1.965,2.206-2.962a10.725,10.725,0,0,0,1.716-2.975c.226-.711.026-1.024-.7-1.15a2.393,2.393,0,0,0-.384-.021l-4.319-.005a.963.963,0,0,0-1.012.7c-.255.637-.516,1.274-.82,1.888a15.454,15.454,0,0,1-2.526,3.883c-.238.251-.5.57-.9.439-.494-.181-.64-1-.632-1.272l0-4.985c-.1-.711-.255-1.029-.962-1.168h-4.486a1.433,1.433,0,0,0-1.219.606c-.183.217-.24.357.14.429a1.5,1.5,0,0,1,1.276,1.369,15.355,15.355,0,0,1,.062,3.588,3.329,3.329,0,0,1-.228,1.025.6.6,0,0,1-1.028.3,4.228,4.228,0,0,1-1-1.093A24.169,24.169,0,0,1,1006.8,715a1.14,1.14,0,0,0-1.078-.808c-1.3-.021-2.591-.024-3.888,0-.778.014-1.011.393-.692,1.1A48.134,48.134,0,0,0,1006.169,724.263Z" transform="translate(-1000.999 -713.656)"/>
</svg>
