<svg xmlns="http://www.w3.org/2000/svg" width="22.041" height="15.362" viewBox="0 0 22.041 15.362">
  <defs>
 
  </defs>
  <path id="Youtube" class="cls-1" d="M554.542,711.256a111.986,111.986,0,0,0,16.505,0,2.786,2.786,0,0,0,2.383-2.166,35.6,35.6,0,0,0,0-10.419,2.784,2.784,0,0,0-2.383-2.166,111.622,111.622,0,0,0-16.507,0,2.781,2.781,0,0,0-2.381,2.166,35.3,35.3,0,0,0,0,10.419A2.783,2.783,0,0,0,554.542,711.256Zm5.41-11.243,7.006,3.655-7.006,3.633Z" transform="translate(-551.776 -696.199)"/>
</svg>
