<?xml version="1.0" encoding="UTF-8"?>
<!DOCTYPE svg PUBLIC "-//W3C//DTD SVG 1.1//EN" "http://www.w3.org/Graphics/SVG/1.1/DTD/svg11.dtd">
<svg xmlns="http://www.w3.org/2000/svg" xmlns:xlink="http://www.w3.org/1999/xlink">
	<defs>
		<linearGradient id="chart-main-a" x1=".5" x2=".5" y2="1" gradientUnits="objectBoundingBox">
			<stop offset="0" stop-color="#347dfe" stop-opacity=".369"/>
			<stop offset="1" stop-color="#347dfe" stop-opacity=".02"/>
		</linearGradient>
		<linearGradient id="chart-main-b" x1=".5" x2=".5" y2="1" gradientUnits="objectBoundingBox">
			<stop offset="0" stop-color="#347dfe" stop-opacity=".169"/>
			<stop offset="1" stop-color="#347dfe" stop-opacity="0"/>
		</linearGradient>
		<linearGradient id="chart-a" x1=".5" x2=".5" y2="1" gradientUnits="objectBoundingBox">
			<stop offset="0" stop-color="#347dfe" stop-opacity=".369"/>
			<stop offset="1" stop-color="#347dfe" stop-opacity=".02"/>
		</linearGradient>
		<linearGradient id="chart-b" x1=".5" x2=".5" y2="1" gradientUnits="objectBoundingBox">
			<stop offset="0" stop-color="#347dfe" stop-opacity=".169"/>
			<stop offset="1" stop-color="#347dfe" stop-opacity="0"/>
		</linearGradient>
		<clipPath id="usa-a">
			<path fill="none" d="M0 0h18.676v12.451H0z"/>
		</clipPath>
	</defs>
<symbol id="bell" viewBox="0 0 15.488 18.222">
	<path d="M7.744 18.222A1.828 1.828 0 0 0 9.567 16.4H5.922a1.828 1.828 0 0 0 1.822 1.822zm5.922-5.467V7.744A5.863 5.863 0 0 0 9.111 2v-.633a1.367 1.367 0 0 0-2.733 0V2a5.863 5.863 0 0 0-4.556 5.74v5.011L0 14.578v.911h15.489v-.911z" class="cls-1" data-name="Path 408"/>
</symbol>
<symbol id="chart-main" viewBox="0 0 1168 268">
	<g data-name="Group 1009">
		<path fill="none" stroke="#cbcfe2" d="M44.5 219.5H1149" data-name="Line 27"/>
		<path fill="none" stroke="#cbcfe2" d="M44.5 177.5H1149" data-name="Line 28"/>
		<path fill="none" stroke="#cbcfe2" d="M44.5 135.5H1149" data-name="Line 29"/>
		<path fill="none" stroke="#cbcfe2" d="M44.5 92.5H1149" data-name="Line 30"/>
		<path fill="none" stroke="#cbcfe2" d="M44.5 50.5H1149" data-name="Line 31"/>
		<path fill="none" stroke="#cbcfe2" d="M44.5 8.5H1149" data-name="Line 32"/>
		<text fill="#8c8f9e" data-name="Feb 17" font-family="SegoeUI, Segoe UI" font-size="13" transform="translate(391 265)">
			<tspan x="0" y="0">Feb 17</tspan>
		</text>
		<text fill="#8c8f9e" data-name="Feb 16" font-family="SegoeUI, Segoe UI" font-size="13" transform="translate(207 265)">
			<tspan x="0" y="0">Feb 16</tspan>
		</text>
		<text fill="#8c8f9e" data-name="Feb 15" font-family="SegoeUI, Segoe UI" font-size="13" transform="translate(23 265)">
			<tspan x="0" y="0">Feb 15</tspan>
		</text>
		<text fill="#8c8f9e" data-name="0" font-family="SegoeUI, Segoe UI" font-size="13" transform="translate(14 225)">
			<tspan x="0" y="0">0</tspan>
		</text>
		<text fill="#95e9cd" data-name="50" font-family="SegoeUI, Segoe UI" font-size="13" transform="translate(22 183)">
			<tspan x="-14.016" y="0">50</tspan>
		</text>
		<text fill="#95e9cd" data-name="150" font-family="SegoeUI, Segoe UI" font-size="13" transform="translate(22 98)">
			<tspan x="-21.023" y="0">150</tspan>
		</text>
		<text fill="#95e9cd" data-name="100" font-family="SegoeUI, Segoe UI" font-size="13" transform="translate(22 141)">
			<tspan x="-21.023" y="0">100</tspan>
		</text>
		<text fill="#95e9cd" data-name="200" font-family="SegoeUI, Segoe UI" font-size="13" transform="translate(22 56)">
			<tspan x="-21.023" y="0">200</tspan>
		</text>
		<text fill="#95e9cd" data-name="250" font-family="SegoeUI, Segoe UI" font-size="13" transform="translate(22 14)">
			<tspan x="-21.023" y="0">250</tspan>
		</text>
		<text fill="#8c8f9e" data-name="Feb 18" font-family="SegoeUI, Segoe UI" font-size="13" transform="translate(575 265)">
			<tspan x="0" y="0">Feb 18</tspan>
		</text>
		<text fill="#8c8f9e" data-name="Feb 19" font-family="SegoeUI, Segoe UI" font-size="13" transform="translate(759 265)">
			<tspan x="0" y="0">Feb 19</tspan>
		</text>
		<text fill="#8c8f9e" data-name="Feb 20" font-family="SegoeUI, Segoe UI" font-size="13" transform="translate(943 265)">
			<tspan x="0" y="0">Feb 20</tspan>
		</text>
		<text fill="#8c8f9e" data-name="Feb 21" font-family="SegoeUI, Segoe UI" font-size="13" transform="translate(1129 265)">
			<tspan x="0" y="0">Feb 21</tspan>
		</text>
		<path fill="none" stroke="#347dfe" stroke-width="2" d="M44.5 219.5s206.433-3.6 346.207-30.956 217.458-77.342 358.253-96.1c72.228-9.621 148.713-25.624 220.234-41.971" data-name="Path 583"/>
		<path fill="url(#chart-main-a)" d="M-6654.5 404.5s206.433-3.6 346.207-30.956 217.458-77.342 358.253-96.1c72.228-9.621 148.713-25.624 220.234-41.971 0 34.527.108 169.068.108 169.068" data-name="Path 586" transform="translate(6699 -185)"/>
		<path fill="none" stroke="#347dfe" stroke-dasharray="7 3" stroke-width="2" d="M969.194 50.476c67.155-15.348 129.875-31.014 179.563-41.67" data-name="Path 584"/>
		<path fill="url(#chart-main-b)" d="M-5946.115 404.516s-.108-144.217-.108-169.04c67.155-15.348 129.875-31.014 179.563-41.67 0 24.828.242 210.711.242 210.711" data-name="Path 585" transform="translate(6915.418 -185)"/>
	</g>
</symbol>
<symbol id="chart" viewBox="0 0 846.107 212.657">
	<g data-name="Group 1009">
		<path fill="none" stroke="#347dfe" stroke-width="2" d="M.023 211.658s158.119-3.6 265.18-30.956 166.563-77.342 274.406-96.1c55.323-9.621 113.908-25.624 168.69-41.971" data-name="Path 583"/>
		<path fill="url(#chart-a)" d="M-6654.5 404.5s158.119-3.6 265.18-30.956 166.563-77.342 274.406-96.1c55.323-9.621 113.908-25.624 168.69-41.971 0 34.527.083 169.068.083 169.068" data-name="Path 586" transform="translate(6654.523 -192.842)"/>
		<path fill="none" stroke="#347dfe" stroke-dasharray="7 3" stroke-width="2" d="M708.3 42.634C759.738 27.286 807.779 11.62 845.838.964" data-name="Path 584"/>
		<path fill="url(#chart-b)" d="M-5946.14 404.516s-.083-144.217-.083-169.04c51.438-15.348 99.479-31.014 137.538-41.67 0 24.828.186 210.71.186 210.71" data-name="Path 585" transform="translate(6654.523 -192.842)"/>
	</g>
</symbol>
<symbol id="document" viewBox="0 0 12.346 15.432">
	<path d="M1.543 0A1.548 1.548 0 0 0 0 1.543v12.346a1.548 1.548 0 0 0 1.543 1.543H10.8a1.548 1.548 0 0 0 1.543-1.543V4.63L7.716 0zm5.4 5.4V1.157L11.188 5.4z" class="cls-1" data-name="Path 27"/>
</symbol>
<symbol id="eye" viewBox="0 0 13.123 8.948">
	<path d="M6.562 0A7.028 7.028 0 0 0 0 4.474a7.049 7.049 0 0 0 13.124 0A7.028 7.028 0 0 0 6.562 0zm0 7.457a2.983 2.983 0 1 1 2.983-2.983 2.954 2.954 0 0 1-2.983 2.983zm0-4.772a1.79 1.79 0 1 0 1.79 1.79 1.758 1.758 0 0 0-1.79-1.791z" class="cls-1" data-name="Path 580"/>
</symbol>
<symbol id="home" viewBox="0 0 18.98 16.134">
	<path d="M7.592 16.134v-5.695h3.8v5.694h4.745V8.541h2.847L9.49 0 0 8.541h2.847v7.592z" class="cls-1" data-name="Path 21"/>
</symbol>
<symbol id="marketing" viewBox="0 0 15.633 15.634">
	<path d="M13.9 0H1.737A1.742 1.742 0 0 0 0 1.737V13.9a1.742 1.742 0 0 0 1.737 1.737H13.9a1.742 1.742 0 0 0 1.734-1.737V1.737A1.742 1.742 0 0 0 13.9 0zm-.869 13.028H7.817V7.991a3.248 3.248 0 0 1-2.171.869 3.263 3.263 0 0 1-3.214-3.215 3.263 3.263 0 0 1 3.213-3.213 3.263 3.263 0 0 1 3.214 3.213 3.248 3.248 0 0 1-.869 2.171h5.037z" class="cls-1" data-name="Path 26"/>
</symbol>
<symbol id="movie" viewBox="0 0 17.182 11.455">
	<path d="M17.183 11.455l-5.728-4.583v4.582H0V0h11.455v4.582L17.183 0z" class="cls-1" data-name="Path 25"/>
</symbol>
<symbol id="pay" viewBox="0 0 15.084 16.761">
	<path d="M10.057 9.219H2.514V7.542h7.542zm2.514-3.352H2.514V4.19h10.057zM0 16.761L1.257 15.5l1.257 1.257L3.771 15.5l1.257 1.257L6.285 15.5l1.257 1.257L8.8 15.5l1.257 1.257 1.257-1.257 1.257 1.257 1.257-1.257 1.257 1.257V0l-1.257 1.257L12.571 0l-1.257 1.257L10.057 0 8.8 1.257 7.542 0 6.285 1.257 5.028 0 3.771 1.257 2.514 0 1.257 1.257 0 0z" class="cls-1" data-name="Path 22"/>
</symbol>
<symbol id="referal" viewBox="0 0 18.283 15.236">
	<path d="M18.283 7.11L11.173 0v4.063C4.063 5.079 1.016 10.157 0 15.236c2.539-3.555 6.094-5.18 11.173-5.18v4.164z" class="cls-1" data-name="Path 23"/>
</symbol>
<symbol id="shares" viewBox="0 0 18.039 14.431">
	<g data-name="Group 12">
		<path d="M2 0h14.039a2 2 0 0 1 2 2v1.608H0V2a2 2 0 0 1 2-2z" class="cls-1" data-name="Rectangle 5"/>
		<path d="M0 6.375h18.039v6.057a2 2 0 0 1-2 2H2a2 2 0 0 1-2-2z" class="cls-1" data-name="Path 29"/>
	</g>
</symbol>
<symbol id="show-more" viewBox="0 0 8.018 8.016">
	<path d="M6.492.8v4.613L1.079 0 0 1.078l5.414 5.413H.8v1.525h7.217V.8z" class="cls-1" data-name="Path 563"/>
</symbol>
<symbol id="stat-balance" viewBox="0 0 118.535 99.001">
	<path fill="#f6f8ff" d="M17.2 99L6.76 60.039l111.776-29.95v55.74L69.379 99zM.653 37.25a19 19 0 0 1 13.435-23.271L66.26-.001h47.993a18.958 18.958 0 0 1 2.833 6.053l1.322 4.932-116.435 31.2z" data-name="Intersection 6"/>
</symbol>
<symbol id="stat-partner" viewBox="0 0 96.543 99">
	<path fill="#f6f8ff" d="M0 99c1.7-22.564 22.664-40.394 48.271-40.394S94.84 76.436 96.543 99zm21.428-78.3a27.845 27.845 0 0 1 9.1-20.7h35.49a27.845 27.845 0 0 1 9.1 20.7c0 15.234-12.018 27.584-26.846 27.584S21.428 35.932 21.428 20.698z" data-name="Intersection 7"/>
</symbol>
<symbol id="stat-profit" viewBox="0 0 100.803 99">
	<path fill="#f6f8ff" d="M34.856 99l-4.069-2.35L29.431 99h-5.68L.001 10.366l9.067 5.235 5.235-9.067 9.068 5.235 5.235-9.067 9.067 5.235L42.255 0h2.611l7.109 4.1L54.344 0h11.463l.471.272.157-.272H89.2l11.6 43.3v36.785l-3.739 6.476-9.067-5.237-5.234 9.069-9.069-5.235-5.233 9.067-9.068-5.235-5.235 9.067-9.067-5.235-3.568 6.182zm-9.055-49.558l2.555 9.535 42.908-11.5-2.555-9.535zm-5.109-19.071l2.555 9.535 57.211-15.33-2.555-9.534z" data-name="Intersection 8"/>
</symbol>
<symbol id="stat-refer" viewBox="0 0 143.078 98.999">
	<path fill="#f6f8ff" d="M89.155 98.999V74.141c-32.518 0-57.616 7.909-77.18 24.858H-.001c11.9-35.848 38.085-68.032 89.155-75.328V0h10.547l43.377 43.378V55.29L99.369 98.999z" data-name="Intersection 1"/>
</symbol>
<symbol id="telega" viewBox="0 0 19.859 17.291">
	<path d="M.35 8.291l4.576 1.708 1.771 5.7a.538.538 0 0 0 .855.257l2.551-2.079a.76.76 0 0 1 .927-.026l4.6 3.34a.539.539 0 0 0 .845-.326L19.845.654a.54.54 0 0 0-.722-.613L.343 7.286A.54.54 0 0 0 .35 8.291zm6.062.8l8.943-5.508a.156.156 0 0 1 .188.247l-7.381 6.861a1.53 1.53 0 0 0-.474.915l-.251 1.863a.231.231 0 0 1-.452.033l-.967-3.4a.9.9 0 0 1 .394-1.012z" class="cls-1"/>
</symbol>
<symbol id="test-row" viewBox="0 0 143.078 98.999">
	<path fill="#f6f8ff" d="M89.155 98.999V74.141c-32.518 0-57.616 7.909-77.18 24.858H-.001c11.9-35.848 38.085-68.032 89.155-75.328V0h10.547l43.377 43.378V55.29L99.369 98.999z" data-name="Intersection 1"/>
</symbol>
<symbol id="usa" viewBox="0 0 18.676 12.451">
	<g fill-rule="evenodd" clip-path="url(#usa-a)">
		<path fill="#fff" d="M.002 0h18.675v12.45H.002V0z" data-name="Path 418"/>
		<path fill="#2e3188" d="M9.386 6.698v-6.7H.002v6.7z" data-name="Path 419"/>
		<path fill="#fff" d="M.765.337L.687.601H.406L.64.774l-.093.249.218-.157.234.157L.905.774l.233-.173h-.28L.765.337zm1.574 0l-.094.264H1.98l.218.173-.078.249.218-.157.219.157L2.48.774l.218-.173h-.281L2.339.337zm1.559 0L3.82.601h-.281l.235.173-.094.249.219-.157.234.157-.094-.249.219-.173h-.265L3.899.337zm1.575 0l-.094.264h-.265l.219.173-.094.249.234-.157.219.157-.094-.249.235-.173h-.281L5.474.337zm1.559 0l-.078.264h-.281l.218.173-.077.249.218-.157.219.157-.078-.249.218-.173h-.265L7.032.337zm1.558 0l-.077.264h-.28l.233.173-.094.249.218-.157.235.157-.094-.249.234-.173h-.281L8.59.337zM.765 1.677l-.078.249H.406l.234.171-.093.249.218-.155.234.155-.094-.249.233-.171h-.28l-.093-.249zm1.574 0l-.094.249H1.98l.218.171-.078.249.218-.155.219.155-.077-.249.218-.171h-.281l-.078-.249zm1.559 0l-.078.249h-.281l.235.171-.094.249.219-.155.234.155-.094-.249.219-.171h-.265l-.094-.249zm1.575 0l-.094.249h-.265l.219.171-.094.249.234-.155.219.155-.094-.249.235-.171h-.281l-.078-.249zm1.559 0l-.078.249h-.281l.218.171-.077.249.218-.155.219.155-.078-.249.218-.171h-.265l-.094-.249zm1.558 0l-.077.249h-.28l.233.171-.094.249.218-.155.235.155-.094-.249.234-.171h-.281l-.094-.249zM.765 3.001l-.078.25H.406l.234.171-.093.265.218-.171.234.171-.094-.265.233-.171h-.28l-.093-.25zm1.574 0l-.094.25H1.98l.218.171-.078.265.218-.171.219.171-.077-.265.218-.171h-.281l-.078-.25zm1.559 0l-.078.25h-.281l.235.171-.094.265.219-.171.234.171-.094-.265.219-.171h-.265l-.094-.25zm1.575 0l-.094.25h-.265l.219.171-.094.265.234-.171.219.171-.094-.265.235-.171h-.281l-.078-.25zm1.559 0l-.078.25h-.281l.218.171-.077.265.218-.171.219.171-.078-.265.218-.171h-.265l-.094-.25zm1.558 0l-.077.25h-.28l.233.171-.094.265.218-.171.235.171-.094-.265.234-.171h-.281l-.094-.25zM.765 4.327l-.078.249H.406l.234.171-.093.265.218-.171.234.171-.094-.265.233-.155h-.28l-.093-.265zm1.574 0l-.094.249H1.98l.218.171-.078.265.218-.171.219.171-.077-.265.218-.155h-.281l-.078-.265zm1.559 0l-.078.249h-.281l.235.171-.094.265.219-.171.234.171-.094-.265.219-.155h-.265l-.094-.265zm1.575 0l-.094.249h-.265l.219.171-.094.265.234-.171.219.171-.094-.265.235-.155h-.281l-.078-.265zm1.559 0l-.078.249h-.281l.218.171-.077.265.218-.171.219.171-.078-.265.218-.155h-.265l-.094-.265zm1.558 0l-.077.249h-.28l.233.171-.094.265.218-.171.235.171-.094-.265.234-.155h-.281l-.094-.265zM.765 5.653l-.078.265H.406l.234.155-.093.265.218-.171.234.171-.094-.265.233-.155h-.28l-.093-.265zm1.574 0l-.094.265H1.98l.218.155-.078.265.218-.171.219.171-.077-.265.218-.155h-.281l-.078-.265zm1.559 0l-.078.265h-.281l.235.155-.094.265.219-.171.234.171-.094-.265.219-.155h-.265l-.094-.265zm1.575 0l-.094.265h-.265l.219.155-.094.265.234-.171.219.171-.094-.265.235-.155h-.281l-.078-.265zm1.559 0l-.078.265h-.281l.218.155-.077.265.218-.171.219.171-.078-.265.218-.155h-.265l-.094-.265zm1.558 0l-.077.265h-.28l.233.155-.094.265.218-.171.235.171-.094-.265.234-.155h-.281l-.094-.265zm-7.03-.655l-.094.249H1.2l.218.171-.094.249.235-.155.218.155-.094-.249.233-.171h-.28l-.077-.249zm1.558 0l-.078.249h-.281l.219.171-.078.249.218-.155.219.155-.078-.249.219-.171h-.265l-.094-.249zm1.559 0l-.078.249h-.281l.234.171-.094.249.218-.155.235.155-.094-.249.234-.171H4.77l-.094-.249zm1.575 0l-.094.249h-.265l.218.171-.078.249.219-.155.218.155-.078-.249.219-.171H6.33l-.078-.249zm1.559 0l-.078.249h-.28l.233.171-.094.249.219-.155.234.155-.094-.249.219-.171h-.265l-.094-.249zM1.56 3.656l-.094.265H1.2l.218.157-.094.265.235-.157.218.157-.094-.265.233-.157h-.28l-.077-.265zm1.558 0l-.078.265h-.281l.219.157-.078.265.218-.157.219.157-.078-.265.219-.157h-.265l-.094-.265zm1.559 0l-.078.265h-.281l.234.157-.094.265.218-.157.235.157-.094-.265.234-.157H4.77l-.094-.265zm1.575 0l-.094.265h-.265l.218.157-.078.265.219-.157.218.157-.078-.265.219-.157H6.33l-.078-.265zm1.559 0l-.078.265h-.28l.233.157-.094.265.219-.157.234.157-.094-.265.219-.157h-.265l-.094-.265zM1.56 2.332l-.094.265H1.2l.218.155-.094.265.235-.155.218.155-.094-.265.233-.155h-.28l-.077-.265zm1.558 0l-.078.265h-.281l.219.155-.078.265.218-.155.219.155-.078-.265.219-.155h-.265l-.094-.265zm1.559 0l-.078.265h-.281l.234.155-.094.265.218-.155.235.155-.094-.265.234-.155H4.77l-.094-.265zm1.575 0l-.094.265h-.265l.218.155-.078.265.219-.155.218.155-.078-.265.219-.155H6.33l-.078-.265zm1.559 0l-.078.265h-.28l.233.155-.094.265.219-.155.234.155-.094-.265.219-.155h-.265l-.094-.265zM1.56 1.006l-.094.265H1.2l.218.157-.094.264.235-.171.218.171-.094-.264.233-.157h-.28l-.077-.265zm1.558 0l-.078.265h-.281l.219.157-.078.264.218-.171.219.171-.078-.264.219-.157h-.265l-.094-.265zm1.559 0l-.078.265h-.281l.234.157-.094.264.218-.171.235.171-.094-.264.234-.157H4.77l-.094-.265zm1.575 0l-.094.265h-.265l.218.157-.078.264.219-.171.218.171-.078-.264.219-.157H6.33l-.078-.265zm1.559 0l-.078.265h-.28l.233.157-.094.264.219-.171.234.171-.094-.264.219-.157h-.265l-.094-.265z" data-name="Path 420"/>
		<path fill="#e8313a" d="M18.676 12.451H.002v-.967h18.676v.967zm0-12.451v.96H9.385V0zm0 1.911v.952H9.385v-.952zm0 1.918v.952H9.385v-.952zm0 1.919v.951H9.385v-.951zm0 1.918v.951H.002v-.951zm0 1.9v.967H.002v-.967z" data-name="Path 421"/>
	</g>
</symbol>
<symbol id="user" viewBox="0 0 12.272 16.047">
	<path d="M.011 14.136C0 14.027 0 13.917 0 13.806c0-3.037 2.747-5.5 6.137-5.5s6.136 2.462 6.136 5.5c0 .111 0 .221-.011.331a10.773 10.773 0 0 1-12.251 0zM2.732 3.5A3.452 3.452 0 0 1 6.137 0a3.452 3.452 0 0 1 3.4 3.5 3.453 3.453 0 0 1-3.4 3.5 3.453 3.453 0 0 1-3.405-3.5z" class="cls-1"/>
</symbol>
<symbol id="vk" viewBox="0 0 27.252 15.424">
	<path d="M5.17 10.607a12.523 12.523 0 0 0 3.823 3.578 10.177 10.177 0 0 0 5.681 1.223c.938-.045 1.22-.29 1.264-1.224a4.161 4.161 0 0 1 .418-1.855.83.83 0 0 1 1.322-.32 3.764 3.764 0 0 1 .713.637c.529.577 1.04 1.174 1.588 1.732a3.072 3.072 0 0 0 2.529 1.03h3.969c.639-.043.971-.826.6-1.542a7.735 7.735 0 0 0-.955-1.374 36.484 36.484 0 0 0-2.67-2.686c-.815-.8-.866-1.257-.212-2.174.716-1 1.484-1.965 2.206-2.962a10.725 10.725 0 0 0 1.716-2.975c.226-.711.026-1.024-.7-1.15a2.393 2.393 0 0 0-.384-.021L21.759.519a.963.963 0 0 0-1.012.7 26.113 26.113 0 0 1-.82 1.888 15.454 15.454 0 0 1-2.526 3.883c-.238.251-.5.57-.9.439-.494-.181-.64-1-.632-1.272V1.172c-.1-.711-.255-1.029-.962-1.168h-4.486A1.433 1.433 0 0 0 9.202.61c-.183.217-.24.357.14.429a1.5 1.5 0 0 1 1.276 1.369 15.355 15.355 0 0 1 .062 3.588 3.329 3.329 0 0 1-.228 1.025.6.6 0 0 1-1.028.3 4.228 4.228 0 0 1-1-1.093 24.169 24.169 0 0 1-2.623-4.884A1.14 1.14 0 0 0 4.723.536C3.423.515 2.132.512.835.536.057.55-.176.929.143 1.636a48.134 48.134 0 0 0 5.027 8.971z" class="cls-1"/>
</symbol>
<symbol id="whatsApp" viewBox="0 0 16.846 16.927">
	<path d="M14.392 2.46a8.39 8.39 0 0 0-13.2 10.121l-1.19 4.347 4.447-1.166a8.381 8.381 0 0 0 4.009 1.021 8.392 8.392 0 0 0 5.934-14.322zm-1.1 9.445a2.543 2.543 0 0 1-1.667 1.174 3.384 3.384 0 0 1-1.555-.1 14.18 14.18 0 0 1-1.408-.52 11.008 11.008 0 0 1-4.218-3.728 4.8 4.8 0 0 1-1.008-2.554 2.769 2.769 0 0 1 .864-2.06.907.907 0 0 1 .658-.309c.165 0 .329 0 .473.009s.355-.058.556.424.7 1.71.761 1.833a.454.454 0 0 1 .021.433 1.681 1.681 0 0 1-.247.412c-.124.144-.259.322-.37.433s-.252.257-.108.5a7.44 7.44 0 0 0 1.374 1.71 6.747 6.747 0 0 0 1.986 1.226c.247.124.391.1.535-.062s.617-.721.782-.968.329-.206.555-.124 1.44.68 1.687.8.412.185.473.288a2.064 2.064 0 0 1-.142 1.178z" class="cls-1"/>
</symbol>
<symbol id="youtube" viewBox="0 0 22.041 15.362">
	<path d="M2.766 15.057a111.986 111.986 0 0 0 16.505 0 2.786 2.786 0 0 0 2.383-2.166 35.6 35.6 0 0 0 0-10.419A2.784 2.784 0 0 0 19.271.306a111.622 111.622 0 0 0-16.507 0A2.781 2.781 0 0 0 .383 2.472a35.3 35.3 0 0 0 0 10.419 2.783 2.783 0 0 0 2.383 2.166zm5.41-11.243l7.006 3.655-7.006 3.633z" class="cls-1"/>
</symbol>
</svg>